<?xml version="1.0" encoding="UTF-8"?>
<svg version="1.1" xmlns="http://www.w3.org/2000/svg" width="512" height="512">
<path d="M0 0 C0.98226563 -0.020625 1.96453125 -0.04125 2.9765625 -0.0625 C18.49175611 -0.14415891 32.18107936 5.64882493 43.33203125 16.4296875 C53.88131601 28.12950869 58.71451967 42.12033136 58.19921875 57.828125 C57.53157142 64.87461976 56.41048806 71.63012206 52.84200668 77.79723358 C50.35785917 82.73521989 50.31111903 87.17900694 50.35601807 92.6270752 C50.34851681 93.64663158 50.34101556 94.66618796 50.333287 95.71664 C50.31305236 99.1192451 50.32110454 102.52118117 50.32910156 105.92382812 C50.3203643 108.36833351 50.30987799 110.81283318 50.29777527 113.25732422 C50.27568046 118.51305478 50.26571276 123.76865849 50.26688385 129.02442932 C50.26855589 136.62327303 50.24819 144.22193349 50.22252855 151.82072824 C50.18148459 164.15065886 50.15814406 176.48055642 50.14599609 188.81054688 C50.13416082 200.78453751 50.11395103 212.75846595 50.08251953 224.73242188 C50.08058343 225.47109499 50.07864733 226.20976811 50.07665256 226.97082525 C50.06688771 230.67671022 50.05695865 234.38259473 50.04694796 238.08847904 C49.96417512 268.80895931 49.91045428 299.52942693 49.875 330.25 C50.48988281 330.52972656 51.10476563 330.80945313 51.73828125 331.09765625 C55.54999962 333.15333618 57.52901865 336.21205596 58.875 340.25 C58.97103314 341.61752572 59.01409692 342.98917668 59.02217102 344.36004639 C59.03290398 345.6131813 59.03290398 345.6131813 59.04385376 346.89163208 C59.04654266 347.80492279 59.04923157 348.7182135 59.05200195 349.65917969 C59.05857315 350.62373077 59.06514435 351.58828186 59.07191467 352.58206177 C59.09164817 355.77866695 59.1033105 358.97522515 59.11328125 362.171875 C59.11735678 363.26364296 59.1214323 364.35541092 59.12563133 365.48026276 C59.14649241 371.25897533 59.16079392 377.03766416 59.17016602 382.81640625 C59.18122973 388.78289712 59.21562944 394.74901497 59.25533772 400.71537399 C59.28149201 405.30508108 59.28985683 409.89469913 59.29344749 414.48447418 C59.29831659 416.68367278 59.3099397 418.88286732 59.32848549 421.0819931 C59.35285074 424.16270953 59.35191638 427.24245876 59.3449707 430.32324219 C59.35778076 431.22843597 59.37059082 432.13362976 59.38378906 433.06625366 C59.33532274 438.97605267 58.28569507 442.39156561 54.875 447.25 C50.03557561 451.84124878 45.62649424 453.49957508 39.00229359 453.50168228 C37.81966743 453.50689778 36.63704128 453.51211327 35.41857797 453.51748681 C34.12325684 453.51302537 32.82793571 453.50856392 31.49336243 453.50396729 C30.10041315 453.50627184 28.7074651 453.50944834 27.31451958 453.51342177 C23.48731413 453.52177879 19.66020828 453.51764043 15.83300245 453.51144934 C11.70553558 453.50692969 7.57808601 453.5139061 3.45062256 453.51940918 C-4.63403192 453.52830933 -12.71864929 453.52637861 -20.80330523 453.5205839 C-27.37115508 453.5160708 -33.93899452 453.51545298 -40.50684547 453.51763153 C-41.44088732 453.517938 -42.37492916 453.51824446 -43.3372753 453.51856022 C-45.23460517 453.51919965 -47.13193504 453.51984808 -49.0292649 453.5205054 C-66.82557182 453.52621027 -84.62185813 453.51964784 -102.41816167 453.50890467 C-117.70106665 453.49996462 -132.98394126 453.50152463 -148.2668457 453.51074219 C-166.00325849 453.52143447 -183.73965324 453.52566557 -201.47606879 453.51951766 C-203.3655798 453.51888054 -205.25509081 453.5182518 -207.14460182 453.51763153 C-208.07435062 453.51732298 -209.00409942 453.51701443 -209.96202242 453.51669653 C-216.52646607 453.51496678 -223.09089831 453.5178906 -229.65534019 453.52259064 C-237.64850236 453.52818772 -245.64162523 453.52670765 -253.63478287 453.51602915 C-257.71599942 453.51075724 -261.79715034 453.50874144 -265.87836647 453.51532745 C-269.60938715 453.52125752 -273.34028094 453.51806095 -277.07128999 453.50737235 C-279.07079615 453.50405605 -281.07031102 453.51063539 -283.06980819 453.51748681 C-284.2446111 453.51227132 -285.41941401 453.50705582 -286.62981701 453.50168228 C-288.16020132 453.50119522 -288.16020132 453.50119522 -289.72150248 453.50069833 C-292.125 453.25 -292.125 453.25 -294.125 451.25 C-294.10546875 448.86328125 -294.10546875 448.86328125 -293.125 446.25 C-275.44336453 431.75163769 -247.17154991 426.45465499 -225.125 424.25 C-225.125 402.8 -225.125 381.35 -225.125 359.25 C-247.895 359.25 -270.665 359.25 -294.125 359.25 C-294.07859375 365.38851563 -294.0321875 371.52703125 -293.984375 377.8515625 C-293.96393364 381.74350653 -293.94467767 385.63538424 -293.9296875 389.52734375 C-293.9057883 395.7031023 -293.87753404 401.87862333 -293.82324219 408.05419922 C-293.77973876 413.03385392 -293.75585319 418.01325386 -293.74549103 422.99308395 C-293.73810776 424.89168686 -293.72368986 426.79027602 -293.70207977 428.68877029 C-293.67298592 431.35092403 -293.66904648 434.01202893 -293.67089844 436.67431641 C-293.65651733 437.45690826 -293.64213623 438.23950012 -293.62731934 439.04580688 C-293.66615859 444.21526896 -294.6375204 447.20155833 -298.125 451.25 C-302.66858708 455.26553248 -307.87157727 454.67331871 -313.61914062 454.63818359 C-315.20289742 454.64606903 -315.20289742 454.64606903 -316.81864929 454.65411377 C-320.30633365 454.66731001 -323.79356105 454.65857669 -327.28125 454.6484375 C-329.70593351 454.65045833 -332.13061642 454.65336985 -334.55529785 454.65713501 C-339.63604521 454.66155787 -344.71663432 454.65512834 -349.79736328 454.64111328 C-356.31100309 454.62402165 -362.82427205 454.63386301 -369.33789825 454.65183067 C-374.34444983 454.6626694 -379.35091343 454.65922171 -384.35746765 454.6514473 C-386.75925236 454.64944555 -389.16104504 454.65190367 -391.56282043 454.65888596 C-394.91904875 454.66650163 -398.27467585 454.65489384 -401.63085938 454.63818359 C-402.62425827 454.64425629 -403.61765717 454.65032898 -404.64115906 454.65658569 C-413.22851023 454.57734788 -413.22851023 454.57734788 -417.125 451.25 C-420.55755454 447.57896727 -421.62585106 445.3935311 -421.6396637 440.37416077 C-421.65238815 439.19797684 -421.66511261 438.02179291 -421.67822266 436.80996704 C-421.67169678 435.5282663 -421.6651709 434.24656555 -421.65844727 432.92602539 C-421.66550848 431.55572074 -421.67425435 430.1854239 -421.68455505 428.81513977 C-421.70703731 425.10014738 -421.70411217 421.38558125 -421.69523358 417.67054677 C-421.69011943 414.56665711 -421.69741975 411.46284725 -421.70470566 408.35896581 C-421.72170113 401.03521926 -421.71814269 393.71168107 -421.70141602 386.38793945 C-421.68449535 378.83795788 -421.7003288 371.2885545 -421.7326389 363.73863608 C-421.7593489 357.25097826 -421.76660703 350.76350028 -421.75812382 344.27579302 C-421.75319857 340.40339255 -421.75538791 336.53133993 -421.77591133 332.65898323 C-421.79429098 329.01682429 -421.78828326 325.3754958 -421.76371193 321.73338127 C-421.75633113 319.76410002 -421.77354204 317.79477442 -421.79153442 315.82556152 C-421.68793894 306.17329056 -421.68793894 306.17329056 -418.71836853 302.49510193 C-415.35044532 299.57946121 -413.59801933 298.25 -409.125 298.25 C-409.12960896 296.974095 -409.13421793 295.69819 -409.13896656 294.38362122 C-409.24728577 264.08749154 -409.32971749 233.79141419 -409.38032665 203.49513733 C-409.38658008 199.76514981 -409.39305171 196.0351627 -409.3996582 192.30517578 C-409.40096976 191.56261119 -409.40228131 190.82004659 -409.4036326 190.05498004 C-409.42538157 178.03581504 -409.46480025 166.01676978 -409.51076398 153.99767578 C-409.55754287 141.66242925 -409.58529841 129.32724538 -409.59544247 116.9919138 C-409.60229871 109.38198397 -409.62394304 101.77239259 -409.66458233 94.16256696 C-409.69416858 88.32461959 -409.6972705 82.48684537 -409.69053841 76.64882088 C-409.69191398 74.25589986 -409.70186006 71.86296603 -409.72102737 69.47012138 C-409.74592726 66.20129036 -409.73991507 62.93390394 -409.72627258 59.66503906 C-409.74083679 58.71949567 -409.755401 57.77395227 -409.77040654 56.79975605 C-409.68633184 49.34010129 -407.23389136 44.72819811 -402.31640625 39.2265625 C-401.77886719 38.78054687 -401.24132812 38.33453125 -400.6875 37.875 C-400.15253906 37.41351563 -399.61757813 36.95203125 -399.06640625 36.4765625 C-394.66603332 33.69644761 -390.24994162 33.00044968 -385.12480164 33.01622009 C-383.93916783 33.01492159 -382.75353403 33.01362309 -381.53197193 33.01228523 C-379.5916158 33.02541913 -379.5916158 33.02541913 -377.61206055 33.03881836 C-376.21697693 33.04097725 -374.82189167 33.04222669 -373.42680645 33.04264641 C-370.39703345 33.04549614 -367.36736886 33.05471377 -364.33762741 33.06879616 C-359.40783955 33.0916701 -354.47808038 33.10073827 -349.54824829 33.108078 C-343.31877745 33.11837645 -337.08933341 33.13240833 -330.85988116 33.15079743 C-318.62231368 33.18686299 -306.38483289 33.19827484 -294.1472168 33.20068359 C-292.22039572 33.20118828 -290.29357465 33.20170714 -288.36675358 33.20223999 C-285.44681051 33.20302737 -282.52686744 33.20379897 -279.60692436 33.20451117 C-268.60220541 33.20728811 -257.59748952 33.21274542 -246.59277344 33.22119141 C-245.08398206 33.22233665 -245.08398206 33.22233665 -243.54471004 33.22350502 C-227.23400874 33.23682825 -210.92349421 33.27962044 -194.61287582 33.33145154 C-177.86807089 33.38379193 -161.12352373 33.39807512 -144.3786478 33.37857723 C-134.04875782 33.3678855 -123.71984771 33.38796909 -113.39011884 33.44736224 C-106.3144139 33.4853446 -99.2392923 33.48697285 -92.16353965 33.45981759 C-88.07918537 33.44526937 -83.99653778 33.44712776 -79.91237259 33.49251366 C-76.17343754 33.53372755 -72.43749233 33.52894068 -68.69858611 33.48748219 C-66.70495505 33.47739003 -64.71126324 33.51667202 -62.71802807 33.55766201 C-59.23665643 33.49259228 -56.4272113 33.35814969 -53.125 32.25 C-50.26913351 29.23093301 -48.7584238 26.03220724 -47.125 22.25 C-35.38463943 6.44810928 -19.14663271 0.09818786 0 0 Z M-141.125 359.25 C-141.125 381.36 -141.125 403.47 -141.125 426.25 C-131.85539907 428.82488915 -122.55875463 431.36324907 -113.125 433.25 C-113.125 408.83 -113.125 384.41 -113.125 359.25 C-122.365 359.25 -131.605 359.25 -141.125 359.25 Z " fill="#FDFDFE" transform="translate(437.125,28.75)"/>
<path d="M0 0 C0.33 0 0.66 0 1 0 C1 81.51 1 163.02 1 247 C2.32 247.66 3.64 248.32 5 249 C8.52619403 252.92918764 10.11611434 255.83705765 10.14717102 261.11004639 C10.15790398 262.3631813 10.15790398 262.3631813 10.16885376 263.64163208 C10.17154266 264.55492279 10.17423157 265.4682135 10.17700195 266.40917969 C10.18357315 267.37373077 10.19014435 268.33828186 10.19691467 269.33206177 C10.21664817 272.52866695 10.2283105 275.72522515 10.23828125 278.921875 C10.24235678 280.01364296 10.2464323 281.10541092 10.25063133 282.23026276 C10.27149241 288.00897533 10.28579392 293.78766416 10.29516602 299.56640625 C10.30622973 305.53289712 10.34062944 311.49901497 10.38033772 317.46537399 C10.40649201 322.05508108 10.41485683 326.64469913 10.41844749 331.23447418 C10.42331659 333.43367278 10.4349397 335.63286732 10.45348549 337.8319931 C10.47785074 340.91270953 10.47691638 343.99245876 10.4699707 347.07324219 C10.48278076 347.97843597 10.49559082 348.88362976 10.50878906 349.81625366 C10.46032274 355.72605267 9.41069507 359.14156561 6 364 C1.16057561 368.59124878 -3.24850576 370.24957508 -9.87270641 370.25168228 C-11.05533257 370.25689778 -12.23795872 370.26211327 -13.45642203 370.26748681 C-14.75174316 370.26302537 -16.04706429 370.25856392 -17.38163757 370.25396729 C-18.77458685 370.25627184 -20.1675349 370.25944834 -21.56048042 370.26342177 C-25.38768587 370.27177879 -29.21479172 370.26764043 -33.04199755 370.26144934 C-37.16946442 370.25692969 -41.29691399 370.2639061 -45.42437744 370.26940918 C-53.50903192 370.27830933 -61.59364929 370.27637861 -69.67830523 370.2705839 C-76.24615508 370.2660708 -82.81399452 370.26545298 -89.38184547 370.26763153 C-90.31588732 370.267938 -91.24992916 370.26824446 -92.2122753 370.26856022 C-94.10960517 370.26919965 -96.00693504 370.26984808 -97.9042649 370.2705054 C-115.70057182 370.27621027 -133.49685813 370.26964784 -151.29316167 370.25890467 C-166.57606665 370.24996462 -181.85894126 370.25152463 -197.1418457 370.26074219 C-214.87825849 370.27143447 -232.61465324 370.27566557 -250.35106879 370.26951766 C-252.2405798 370.26888054 -254.13009081 370.2682518 -256.01960182 370.26763153 C-256.94935062 370.26732298 -257.87909942 370.26701443 -258.83702242 370.26669653 C-265.40146607 370.26496678 -271.96589831 370.2678906 -278.53034019 370.27259064 C-286.52350236 370.27818772 -294.51662523 370.27670765 -302.50978287 370.26602915 C-306.59099942 370.26075724 -310.67215034 370.25874144 -314.75336647 370.26532745 C-318.48438715 370.27125752 -322.21528094 370.26806095 -325.94628999 370.25737235 C-327.94579615 370.25405605 -329.94531102 370.26063539 -331.94480819 370.26748681 C-333.1196111 370.26227132 -334.29441401 370.25705582 -335.50481701 370.25168228 C-337.03520132 370.25119522 -337.03520132 370.25119522 -338.59650248 370.25069833 C-341 370 -341 370 -343 368 C-342.98046875 365.61328125 -342.98046875 365.61328125 -342 363 C-324.31836453 348.50163769 -296.04654991 343.20465499 -274 341 C-274 319.55 -274 298.1 -274 276 C-296.77 276 -319.54 276 -343 276 C-343 269.4 -343 262.8 -343 256 C-340.71846512 256.0030162 -338.43693024 256.00603241 -336.08625793 256.00914001 C-314.61685095 256.0341991 -293.14771678 256.02070509 -271.67834949 255.97153378 C-260.63989121 255.94718292 -249.60170765 255.93591099 -238.56323242 255.95532227 C-228.94316773 255.97220619 -219.32348722 255.96465908 -209.70347327 255.92765242 C-204.60859942 255.9089097 -199.51437548 255.9024842 -194.41950417 255.92530632 C-189.62490485 255.94639762 -184.8314972 255.93484825 -180.03700256 255.89815521 C-178.27658858 255.89045541 -176.51607567 255.8947282 -174.75572777 255.91181374 C-172.35194879 255.9333589 -169.95223347 255.91193287 -167.54866028 255.87974548 C-166.50244128 255.9044939 -166.50244128 255.9044939 -165.43508655 255.92974228 C-162.57203577 255.85270309 -160.55606072 255.58220742 -158.53695047 253.46815598 C-157.21581072 251.6306661 -157.21581072 251.6306661 -156.14269847 249.73683268 C-153.86979714 246.28215989 -150.93638102 244.96418581 -147 244 C-141.15377961 243.53767135 -135.3583234 243.62206793 -129.5 243.75 C-127.89845979 243.77009217 -126.29689529 243.78833815 -124.6953125 243.8046875 C-120.79626919 243.84847729 -116.89840534 243.91735279 -113 244 C-113.15855469 243.40960938 -113.31710937 242.81921875 -113.48046875 242.2109375 C-114.57610236 237.54831629 -114.5673276 234.11283491 -112.375 229.8125 C-109.80618809 226.77048589 -107.49702342 224.89422102 -104 223 C-102.68 223 -101.36 223 -100 223 C-100.00184359 222.34731958 -100.00368717 221.69463917 -100.00558662 221.02218056 C-100.04971272 205.15725963 -100.08283073 189.29235999 -100.10362434 173.42739296 C-100.11394668 165.75528386 -100.12802522 158.08321566 -100.15087891 150.41113281 C-100.17078357 143.7258757 -100.18370947 137.04064821 -100.18817699 130.3553623 C-100.19078935 126.81398502 -100.19694922 123.27269249 -100.21146011 119.73134232 C-100.22750966 115.78262975 -100.22798157 111.83400087 -100.22705078 107.88525391 C-100.23424133 106.70490067 -100.24143188 105.52454742 -100.24884033 104.3084259 C-100.246091 103.23707901 -100.24334167 102.16573212 -100.24050903 101.06192017 C-100.24235262 100.12722208 -100.24419621 99.19252399 -100.24609566 98.22950172 C-100 96 -100 96 -98 94 C-95.32617188 93.74121094 -95.32617188 93.74121094 -91.96875 93.734375 C-90.76605469 93.73179687 -89.56335938 93.72921875 -88.32421875 93.7265625 C-87.06222656 93.73429687 -85.80023438 93.74203125 -84.5 93.75 C-83.23800781 93.74226563 -81.97601563 93.73453125 -80.67578125 93.7265625 C-79.47308594 93.72914063 -78.27039063 93.73171875 -77.03125 93.734375 C-75.92330078 93.73663086 -74.81535156 93.73888672 -73.67382812 93.74121094 C-71 94 -71 94 -69 96 C-68.75390434 98.21388435 -68.75390434 98.21388435 -68.75949097 101.0239563 C-68.75536697 102.61835541 -68.75536697 102.61835541 -68.75115967 104.2449646 C-68.75835022 105.4159671 -68.76554077 106.5869696 -68.77294922 107.79345703 C-68.77265717 109.02269897 -68.77236511 110.25194092 -68.77206421 111.51843262 C-68.77322094 114.8943349 -68.78326911 118.26999425 -68.79721212 121.64585352 C-68.80969282 125.1719253 -68.81088788 128.69800012 -68.81326294 132.22409058 C-68.81948556 138.90350675 -68.8359069 145.58285766 -68.85596192 152.26224506 C-68.87829665 159.86552332 -68.88930823 167.46880466 -68.89935279 175.07210755 C-68.92027249 190.7147762 -68.95546359 206.35737969 -69 222 C-68.09378906 221.97679687 -67.18757813 221.95359375 -66.25390625 221.9296875 C-65.03574219 221.91164063 -63.81757813 221.89359375 -62.5625 221.875 C-61.36753906 221.85179687 -60.17257812 221.82859375 -58.94140625 221.8046875 C-55 222 -55 222 -46 224 C-46 158.33 -46 92.66 -46 25 C-37.585 23.515 -37.585 23.515 -29 22 C-17.46959554 18.47305275 -8.14730944 11.5308419 -1.20703125 1.65234375 C-0.60955078 0.83443359 -0.60955078 0.83443359 0 0 Z M-190 276 C-190 298.11 -190 320.22 -190 343 C-180.73039907 345.57488915 -171.43375463 348.11324907 -162 350 C-162 325.58 -162 301.16 -162 276 C-171.24 276 -180.48 276 -190 276 Z " fill="#51504F" transform="translate(486,112)"/>
<path d="M0 0 C1.78400099 -0.00597315 1.78400099 -0.00597315 3.60404241 -0.01206696 C5.55053762 -0.00332844 5.55053762 -0.00332844 7.53635597 0.00558662 C8.93571762 0.00471413 10.33507895 0.00296235 11.73443854 0.00040829 C15.57465634 -0.00406068 19.41476245 0.00393224 23.25496602 0.01396441 C27.39804849 0.0226031 31.54112469 0.01967846 35.68421364 0.01815987 C42.86070561 0.01711128 50.03716121 0.02338513 57.21364403 0.03463554 C67.58962249 0.05089114 77.96558337 0.05609861 88.34157319 0.05861153 C105.17601149 0.06298853 122.0104304 0.0762978 138.84485817 0.09521675 C155.19772177 0.1135754 171.5505801 0.12773198 187.90345192 0.13623238 C189.41549417 0.13702055 189.41549417 0.13702055 190.95808272 0.13782464 C196.01507496 0.14043472 201.07206725 0.14296213 206.12905955 0.14544845 C248.08040044 0.16618112 290.03171999 0.20140682 331.98304176 0.24609566 C331.67366676 1.50422066 331.36429176 2.76234566 331.04554176 4.05859566 C329.69356035 10.17064181 329.69356035 10.17064181 328.98304176 20.24609566 C219.42304176 20.57609566 109.86304176 20.90609566 -3.01695824 21.24609566 C-3.34695824 101.76609566 -3.67695824 182.28609566 -4.01695824 265.24609566 C10.83304176 265.24609566 25.68304176 265.24609566 40.98304176 265.24609566 C38.67304176 262.60609566 36.36304176 259.96609566 33.98304176 257.24609566 C27.13316439 248.07331034 22.94325499 239.27848696 19.98304176 228.24609566 C19.73811989 227.33988472 19.49319801 226.43367378 19.24085426 225.50000191 C15.09111348 207.7357006 19.42163666 188.93445309 28.55335426 173.42187691 C40.12788692 155.80708267 55.97465449 144.96033316 76.22132301 139.66015816 C96.2811319 136.65260548 116.23159679 140.76875979 132.98304176 152.24609566 C133.80417458 152.80812691 134.62530739 153.37015816 135.47132301 153.94922066 C149.13855189 164.066796 158.97772654 180.07545797 162.54163551 196.70703316 C165.39624564 219.59443825 160.99225214 239.42451064 146.85804176 257.93359566 C135.61979439 271.02262401 119.29888043 281.2049756 101.98304176 283.24609566 C93.32187478 283.68620364 84.64783025 283.50207168 75.98304176 283.24609566 C78.10503008 285.39498242 80.23043775 287.54028149 82.35804176 289.68359566 C82.96132301 290.29525581 83.56460426 290.90691597 84.18616676 291.53711128 C84.76624489 292.12041206 85.34632301 292.70371284 85.94397926 293.30468941 C86.47813454 293.8440815 87.01228981 294.38347359 87.56263161 294.93921089 C88.96956565 296.35456542 88.96956565 296.35456542 90.98304176 297.24609566 C91.0765507 312.1365399 91.14705304 327.02696136 91.19029045 341.91763687 C91.21090146 348.83191058 91.23899374 355.74600167 91.28479958 362.66015816 C91.32897961 369.33209813 91.35217649 376.00380916 91.36255074 382.67590141 C91.36994435 385.22202606 91.38438217 387.76814026 91.40596199 390.31418419 C91.4349774 393.87911905 91.43899837 397.44326884 91.43714333 401.00830269 C91.45152443 402.06206596 91.46590553 403.11582924 91.48072243 404.20152473 C91.44787479 410.03116888 91.10715388 413.75903126 86.98304176 418.24609566 C82.43945468 422.26162813 77.23646449 421.66941437 71.48890114 421.63427925 C69.90514435 421.64216469 69.90514435 421.64216469 68.28939247 421.65020943 C64.80170811 421.66340567 61.31448071 421.65467235 57.82679176 421.64453316 C55.40210825 421.64655399 52.97742534 421.64946551 50.55274391 421.65323067 C45.47199655 421.65765352 40.39140745 421.651224 35.31067848 421.63720894 C28.79703867 421.62011731 22.28376971 421.62995866 15.77014351 421.64792633 C10.76359194 421.65876505 5.75712833 421.65531737 0.75057411 421.64754295 C-1.65121059 421.6455412 -4.05300328 421.64799932 -6.45477867 421.65498161 C-9.81100698 421.66259728 -13.16663409 421.6509895 -16.52281761 421.63427925 C-17.51621651 421.64035194 -18.5096154 421.64642464 -19.53311729 421.65268135 C-28.12046846 421.57344353 -28.12046846 421.57344353 -32.01695824 418.24609566 C-35.44951278 414.57506293 -36.5178093 412.38962676 -36.53162193 407.37025642 C-36.54434639 406.19407249 -36.55707085 405.01788857 -36.57018089 403.8060627 C-36.56365501 402.52436195 -36.55712914 401.24266121 -36.5504055 399.92212105 C-36.55746672 398.5518164 -36.56621259 397.18151955 -36.57651329 395.81123543 C-36.59899555 392.09624303 -36.5960704 388.38167691 -36.58719182 384.66664243 C-36.58207767 381.56275277 -36.58937798 378.45894291 -36.59666389 375.35506147 C-36.61365937 368.03131491 -36.61010092 360.70777673 -36.59337425 353.38403511 C-36.57645359 345.83405354 -36.59228703 338.28465016 -36.62459713 330.73473173 C-36.65130714 324.24707392 -36.65856526 317.75959594 -36.65008205 311.27188867 C-36.64515681 307.39948821 -36.64734615 303.52743558 -36.66786957 299.65507889 C-36.68624922 296.01291995 -36.6802415 292.37159146 -36.65567017 288.72947693 C-36.64828937 286.76019567 -36.66550028 284.79087007 -36.68349266 282.82165718 C-36.57989718 273.16938622 -36.57989718 273.16938622 -33.61032677 269.49119759 C-30.24240356 266.57555686 -28.48997757 265.24609566 -24.01695824 265.24609566 C-24.0215672 263.97019066 -24.02617617 262.69428566 -24.0309248 261.37971687 C-24.13924401 231.0835872 -24.22167572 200.78750985 -24.27228488 170.49123299 C-24.27853832 166.76124547 -24.28500994 163.03125835 -24.29161644 159.30127144 C-24.29292799 158.55870684 -24.29423954 157.81614225 -24.29559084 157.0510757 C-24.31733981 145.0319107 -24.35675848 133.01286543 -24.40272222 120.99377143 C-24.44950111 108.65852491 -24.47725665 96.32334104 -24.48740071 83.98800945 C-24.49425694 76.37807963 -24.51590128 68.76848825 -24.55654057 61.15866262 C-24.58612681 55.32071525 -24.58922874 49.48294103 -24.58249664 43.64491653 C-24.58387222 41.25199552 -24.59381829 38.85906169 -24.61298561 36.46621704 C-24.6378855 33.19738602 -24.63187331 29.9299996 -24.61823082 26.66113472 C-24.63279503 25.71559133 -24.64735923 24.77004793 -24.66236478 23.79585171 C-24.57829008 16.33619695 -22.1258496 11.72429377 -17.20836449 6.22265816 C-16.67082542 5.77664253 -16.13328636 5.33062691 -15.57945824 4.87109566 C-15.0444973 4.40961128 -14.50953636 3.94812691 -13.95836449 3.47265816 C-9.5550701 0.69069752 -5.12823284 -0.00380151 0 0 Z " fill="#D0D9FD" transform="translate(52.016958236694336,61.75390434265137)"/>
<path d="M0 0 C60.39 0 120.78 0 183 0 C182.67 6.6 182.34 13.2 182 20 C172.43 20 162.86 20 153 20 C153 42.11 153 64.22 153 87 C164.95081442 89.67871803 164.95081442 89.67871803 176.9375 92.1875 C179.67636299 93.04135337 180.67447976 93.39857412 182.05078125 95.94140625 C182.52165022 97.49606302 182.94159713 99.06694886 183.3125 100.6484375 C184.65617491 105.24441645 187.79905772 108.75810285 191.9453125 111.09765625 C193.59602129 111.81608214 195.29555259 112.42048788 197 113 C197 113.33 197 113.66 197 114 C171.60970788 114.04666293 146.21942216 114.08196079 120.82909584 114.10362434 C109.04067173 114.11394921 97.25227423 114.12803258 85.46386719 114.15087891 C75.1924457 114.17077582 64.92104347 114.18370763 54.64960325 114.18817699 C49.20793295 114.19079066 43.76631775 114.19695888 38.32466507 114.21146011 C33.2079217 114.22498566 28.09125639 114.22923288 22.97449684 114.22621536 C21.09186568 114.22676779 19.20923204 114.23077505 17.32661629 114.23841095 C14.76546777 114.24829366 12.20461789 114.24599352 9.64346313 114.24050903 C8.8905539 114.24633472 8.13764467 114.2521604 7.36192 114.25816262 C2.22824242 114.22824242 2.22824242 114.22824242 0 112 C0.01953125 109.61328125 0.01953125 109.61328125 1 107 C18.68163547 92.50163769 46.95345009 87.20465499 69 85 C69 63.55 69 42.1 69 20 C46.23 20 23.46 20 0 20 C0 13.4 0 6.8 0 0 Z " fill="#504F4E" transform="translate(143,368)"/>
<path d="M0 0 C0.33 0 0.66 0 1 0 C1.12375 0.60328125 1.2475 1.2065625 1.375 1.828125 C1.58125 2.62734375 1.7875 3.4265625 2 4.25 C2.185625 5.03890625 2.37125 5.8278125 2.5625 6.640625 C6.60013666 13.26761561 18.38326771 15.4382543 25.3125 17.875 C26.54258789 18.31118652 27.77267578 18.74737305 29.04003906 19.19677734 C38.9589909 22.68974852 48.93633037 25.95115428 59 29 C58.9071875 27.6078125 58.9071875 27.6078125 58.8125 26.1875 C59 23 59 23 60.27954102 21.34326172 C65.97526051 16.89628447 77.51703186 18.84820436 84.48413086 18.86962891 C86.5617601 18.87499809 88.6391741 18.86965057 90.71679688 18.86328125 C107.96126902 18.85321382 107.96126902 18.85321382 112 21.125 C113.53168204 23.99690383 113.05910555 26.80091201 113 30 C113.78834229 29.70867187 114.57668457 29.41734375 115.38891602 29.1171875 C133.18901347 22.54627436 150.99736145 16.00087952 169 10 C170.21869929 7.49552484 170.21869929 7.49552484 171 5 C171.33 5 171.66 5 172 5 C172.09282946 14.78819251 172.16383059 24.57627967 172.20724869 34.36482334 C172.22809112 38.91044772 172.25634729 43.4557701 172.30175781 48.0012207 C172.34533541 52.39085277 172.36916225 56.78019503 172.37950897 61.17002678 C172.38687903 62.84173072 172.40127112 64.51341946 172.42292023 66.18499947 C172.45211368 68.53326362 172.45594952 70.88034228 172.45410156 73.22875977 C172.46848267 73.91424896 172.48286377 74.59973816 172.49768066 75.30599976 C172.4521388 80.68206653 170.92496821 83.64988833 168 88 C163.13756102 92.61308314 158.71353534 94.24582524 152.06169128 94.26742554 C150.27650841 94.28022049 150.27650841 94.28022049 148.45526123 94.29327393 C147.1580011 94.29236755 145.86074097 94.29146118 144.52416992 94.29052734 C143.1374119 94.29651498 141.7506572 94.30332107 140.36390686 94.31088257 C136.60343726 94.32852711 132.84305872 94.33323732 129.08255172 94.33451414 C126.73078389 94.33593731 124.37903909 94.34021007 122.02727699 94.34550858 C113.81593993 94.36400456 105.60466775 94.37217983 97.39331055 94.37060547 C89.75030641 94.36940456 82.10758489 94.39049795 74.46465224 94.4220928 C67.89376668 94.44828377 61.32297325 94.45897157 54.75203592 94.45769465 C50.83153455 94.45718579 46.91128436 94.46282633 42.99083519 94.48405075 C39.30119937 94.50348067 35.61205307 94.50352567 31.92239952 94.48901749 C29.93201692 94.48594482 27.94163403 94.50257301 25.95132446 94.51989746 C17.8454592 94.46316379 12.41423081 93.57910606 5.9765625 88.359375 C5.53054688 87.82828125 5.08453125 87.2971875 4.625 86.75 C4.16351563 86.22921875 3.70203125 85.7084375 3.2265625 85.171875 C0.08800588 79.61443079 -0.24816362 73.4564302 -0.22705078 67.20703125 C-0.22734283 66.47434525 -0.22763489 65.74165924 -0.22793579 64.98677063 C-0.22655641 62.59522126 -0.21106188 60.20399409 -0.1953125 57.8125 C-0.1915774 56.1424171 -0.18873278 54.47233198 -0.18673706 52.80224609 C-0.17913969 48.42927894 -0.15952511 44.05644688 -0.1373291 39.68353271 C-0.11678629 35.21221748 -0.10771738 30.74088018 -0.09765625 26.26953125 C-0.07627517 17.51295918 -0.04218684 8.75649645 0 0 Z " fill="#4269C3" transform="translate(324,388)"/>
<path d="M0 0 C1.78400099 -0.00597315 1.78400099 -0.00597315 3.60404241 -0.01206696 C5.55053762 -0.00332844 5.55053762 -0.00332844 7.53635597 0.00558662 C8.93571762 0.00471413 10.33507895 0.00296235 11.73443854 0.00040829 C15.57465634 -0.00406068 19.41476245 0.00393224 23.25496602 0.01396441 C27.39804849 0.0226031 31.54112469 0.01967846 35.68421364 0.01815987 C42.86070561 0.01711128 50.03716121 0.02338513 57.21364403 0.03463554 C67.58962249 0.05089114 77.96558337 0.05609861 88.34157319 0.05861153 C105.17601149 0.06298853 122.0104304 0.0762978 138.84485817 0.09521675 C155.19772177 0.1135754 171.5505801 0.12773198 187.90345192 0.13623238 C189.41549417 0.13702055 189.41549417 0.13702055 190.95808272 0.13782464 C196.01507496 0.14043472 201.07206725 0.14296213 206.12905955 0.14544845 C248.08040044 0.16618112 290.03171999 0.20140682 331.98304176 0.24609566 C331.67366676 1.50422066 331.36429176 2.76234566 331.04554176 4.05859566 C329.69356035 10.17064181 329.69356035 10.17064181 328.98304176 20.24609566 C219.42304176 20.57609566 109.86304176 20.90609566 -3.01695824 21.24609566 C-3.34695824 102.09609566 -3.67695824 182.94609566 -4.01695824 266.24609566 C-10.61695824 266.24609566 -17.21695824 266.24609566 -24.01695824 266.24609566 C-24.13002022 234.53377298 -24.21952246 202.82152723 -24.27228488 171.10905072 C-24.27853832 167.36404192 -24.28500994 163.61903353 -24.29161644 159.87402534 C-24.29292799 159.12847014 -24.29423954 158.38291493 -24.29559084 157.61476713 C-24.31733997 145.54710345 -24.35675873 133.479559 -24.40272222 121.41196603 C-24.44950066 109.02699893 -24.47725655 96.64209423 -24.48740071 84.25704241 C-24.49425704 76.61640372 -24.51590188 68.9761021 -24.55654057 61.33556718 C-24.58612613 55.4741189 -24.58922885 49.61284307 -24.58249664 43.75131798 C-24.58387225 41.3487217 -24.59381875 38.94611267 -24.61298561 36.54359245 C-24.63788434 33.26162609 -24.6318737 29.98109865 -24.61823082 26.69909859 C-24.63279503 25.74966424 -24.64735923 24.8002299 -24.66236478 23.82202482 C-24.57846119 16.34819378 -22.13552495 11.73511847 -17.20836449 6.22265816 C-16.40205589 5.55363472 -16.40205589 5.55363472 -15.57945824 4.87109566 C-15.0444973 4.40961128 -14.50953636 3.94812691 -13.95836449 3.47265816 C-9.5550701 0.69069752 -5.12823284 -0.00380151 0 0 Z " fill="#515050" transform="translate(52.016958236694336,61.75390434265137)"/>
<path d="M0 0 C0.98226562 -0.020625 1.96453125 -0.04125 2.9765625 -0.0625 C18.49175611 -0.14415891 32.18107936 5.64882493 43.33203125 16.4296875 C53.87728424 28.12503721 58.72769165 42.12684639 58.1953125 57.83203125 C56.70813909 73.70125974 50.12359538 86.49349555 37.82421875 96.80859375 C22.61926975 108.24164758 5.3180116 109.81334485 -13.05859375 107.82421875 C-26.86819008 105.31478263 -38.61972053 97.66710532 -46.875 86.375 C-56.58939796 71.79233883 -58.42735177 55.60915491 -55.47265625 38.46484375 C-50.86693549 23.46165895 -40.7057424 12.58651365 -27.125 5.25 C-17.96665488 1.27176872 -9.90778666 0.05080916 0 0 Z " fill="#F99910" transform="translate(437.125,28.75)"/>
<path d="M0 0 C1.09123169 -0.00953201 2.18246338 -0.01906403 3.3067627 -0.02888489 C4.48492554 -0.02797348 5.66308838 -0.02706207 6.87695312 -0.02612305 C8.08637573 -0.03040817 9.29579834 -0.0346933 10.54187012 -0.03910828 C13.10066094 -0.04485505 15.65946811 -0.0453493 18.21826172 -0.04101562 C22.14253454 -0.03785442 26.06605474 -0.06131611 29.99023438 -0.08666992 C32.47330634 -0.08894266 34.95638033 -0.08964653 37.43945312 -0.08862305 C38.61761597 -0.09783279 39.79577881 -0.10704254 41.00964355 -0.11653137 C42.10087524 -0.11030258 43.19210693 -0.10407379 44.31640625 -0.09765625 C45.27776489 -0.09828568 46.23912354 -0.0989151 47.22961426 -0.0995636 C49.65820312 0.2746582 49.65820312 0.2746582 51.44909668 1.56745911 C53.34642768 4.24639758 53.35592619 7.07052267 53.65820312 10.2746582 C54.79249756 10.25371094 55.92679199 10.23276367 57.09545898 10.21118164 C61.33898086 10.13830318 65.58244839 10.092686 69.82641602 10.05493164 C71.65658905 10.03492446 73.48669904 10.00770969 75.31665039 9.97290039 C77.96060825 9.92389817 80.60371478 9.90158059 83.24804688 9.8840332 C84.45798561 9.85306549 84.45798561 9.85306549 85.69236755 9.82147217 C92.1697022 9.81896366 98.37636019 11.29081298 103.28941345 15.75775146 C108.50633077 21.77740119 107.87272236 27.60112458 107.90820312 35.1496582 C107.93914062 36.78354492 107.93914062 36.78354492 107.97070312 38.45043945 C107.9784375 40.03018555 107.9784375 40.03018555 107.98632812 41.6418457 C107.99567383 42.60203613 108.00501953 43.56222656 108.01464844 44.55151367 C107.56004926 48.02452688 106.9471099 49.58675262 104.65820312 52.2746582 C101.783782 53.94813357 98.76875691 55.11186072 95.65820312 56.2746582 C94.82467316 56.59116333 93.99114319 56.90766846 93.13235474 57.23376465 C90.43209591 58.23660088 87.7216073 59.2052176 85.00585938 60.1652832 C84.02451523 60.51476013 83.04317108 60.86423706 82.03208923 61.2243042 C79.97635374 61.9553862 77.91999356 62.68471386 75.86303711 63.41235352 C72.70374261 64.53066179 69.54708639 65.65619401 66.390625 66.7824707 C64.38752231 67.49383782 62.38427234 68.20479038 60.38085938 68.9152832 C58.96221336 69.42143158 58.96221336 69.42143158 57.51490784 69.93780518 C56.64317429 70.24522644 55.77144073 70.55264771 54.87329102 70.86938477 C54.10545792 71.14155823 53.33762482 71.41373169 52.54652405 71.69415283 C50.65820312 72.2746582 50.65820312 72.2746582 48.65820312 72.2746582 C48.53445313 71.1609082 48.41070312 70.0471582 48.28320312 68.8996582 C48.01162182 65.24362143 48.01162182 65.24362143 45.65820312 63.2746582 C38.65320786 61.90993656 31.52561231 62.12235686 24.41430664 62.14428711 C22.36076378 62.1496191 20.30744223 62.1443314 18.25390625 62.13793945 C10.67131566 62.13450857 3.19438663 62.40368688 -4.34179688 63.2746582 C-4.67179687 65.9146582 -5.00179687 68.5546582 -5.34179688 71.2746582 C-10.04288251 70.70974312 -14.26592248 69.78701573 -18.73632812 68.2355957 C-19.93136963 67.82341797 -21.12641113 67.41124023 -22.35766602 66.98657227 C-23.62348563 66.54171881 -24.88902459 66.09606602 -26.15429688 65.6496582 C-26.79575653 65.42467651 -27.43721619 65.19969482 -28.09811401 64.96789551 C-31.32620968 63.83527984 -34.55142499 62.69497276 -37.7734375 61.54516602 C-39.97528877 60.76120091 -42.17929611 59.98322566 -44.38671875 59.21508789 C-46.90063269 58.3389176 -49.4035955 57.43772663 -51.90429688 56.5246582 C-52.61626221 56.28021973 -53.32822754 56.03578125 -54.06176758 55.78393555 C-57.26991349 54.57377921 -59.35783834 53.25835842 -61.76757812 50.80981445 C-64.05123875 45.68149469 -64.00077096 41.01692079 -63.96679688 35.4621582 C-63.99902344 34.41995117 -64.03125 33.37774414 -64.06445312 32.30395508 C-64.07255212 25.85310807 -63.02907407 21.56019159 -59.41357422 16.20556641 C-53.67537235 10.8575298 -47.65822094 9.67682956 -40.02929688 9.6652832 C-39.1749707 9.64874695 -38.32064453 9.63221069 -37.44042969 9.61517334 C-34.74081 9.56701001 -32.04175221 9.54539371 -29.34179688 9.5246582 C-27.49932117 9.49647192 -25.65687128 9.46654081 -23.81445312 9.43481445 C-19.32361405 9.3612601 -14.83308113 9.31149283 -10.34179688 9.2746582 C-10.07367188 8.1609082 -9.80554688 7.0471582 -9.52929688 5.8996582 C-7.73189467 0.41285148 -5.33343453 0.02556093 0 0 Z " fill="#255299" transform="translate(388.341796875,345.725341796875)"/>
<path d="M0 0 C3.99824749 2.17779754 7.72496743 4.45548043 11.31640625 7.26171875 C11.93257813 7.73996094 12.54875 8.21820313 13.18359375 8.7109375 C19.29432576 14.10196107 25.72354797 24.86375573 26.4934082 33.171875 C26.97154251 49.96562814 24.28734667 61.86917212 12.56640625 74.51171875 C8.30338111 78.59610284 3.73565788 81.01221807 -1.68359375 83.26171875 C-2.3796875 83.58140625 -3.07578125 83.90109375 -3.79296875 84.23046875 C-13.64660777 88.23119437 -25.13366265 87.33365539 -34.90625 83.58203125 C-46.04203445 78.28822655 -55.03227826 69.76642179 -59.68359375 58.26171875 C-59.98136719 57.62234375 -60.27914062 56.98296875 -60.5859375 56.32421875 C-64.19617591 47.53985985 -64.08983791 36.31557184 -61.05859375 27.38671875 C-60.31439843 25.65717771 -59.52249409 23.94735961 -58.68359375 22.26171875 C-58.25949219 21.39933594 -57.83539063 20.53695312 -57.3984375 19.6484375 C-46.6191562 -0.13859976 -20.85043599 -9.29949023 0 0 Z " fill="#FEFEFE" transform="translate(160.68359375,231.73828125)"/>
<path d="M0 0 C0.33 0 0.66 0 1 0 C1 81.18 1 162.36 1 246 C-0.98 245.67 -2.96 245.34 -5 245 C-15.395 244.505 -15.395 244.505 -26 244 C-26 170.41 -26 96.82 -26 21 C-22.7 19.35 -19.4 17.7 -16 16 C-9.91732921 12.16201959 -5.50627207 7.53763187 -1.3125 1.72265625 C-0.6628125 0.86994141 -0.6628125 0.86994141 0 0 Z " fill="#3A3A3A" transform="translate(486,112)"/>
<path d="M0 0 C1.23169922 0.84304687 1.23169922 0.84304687 2.48828125 1.703125 C16.15551013 11.82070034 25.99468478 27.82936231 29.55859375 44.4609375 C32.41388881 67.35383414 28.04331116 87.32183812 13.75 105.75 C9.06918894 111.2554099 3.75379004 115.64432717 -2 120 C-5.7971506 115.47475498 -9.0018061 110.61030105 -12.25 105.6875 C-12.80429688 104.85154297 -13.35859375 104.01558594 -13.9296875 103.15429688 C-15.28857434 101.10425208 -16.6452753 99.05279662 -18 97 C-17.25878906 96.26394531 -16.51757812 95.52789062 -15.75390625 94.76953125 C-4.0318574 82.98097432 1.44578562 73.13695475 1.43603516 56.2800293 C1.1721583 44.5938932 -3.75680093 35.32107681 -11.87890625 27.09765625 C-22.47374319 17.29069368 -33.99413196 15.31031759 -48.03515625 15.62890625 C-58.88408537 16.20356206 -67.33194191 21.56307132 -75 29 C-77.18111051 31.56062374 -79.15891145 34.18597848 -81 37 C-86.60476823 35.42195846 -91.35050626 32.73583615 -96.375 29.875 C-97.20644531 29.40707031 -98.03789063 28.93914062 -98.89453125 28.45703125 C-100.93234954 27.30929451 -102.96735569 26.15686718 -105 25 C-103.91308484 15.70269491 -94.55292181 7.98095794 -87.79296875 2.1328125 C-61.829787 -17.6936172 -26.99981067 -18.49905462 0 0 Z " fill="#B53218" transform="translate(185,214)"/>
<path d="M0 0 C0.80078125 2.171875 0.80078125 2.171875 1.3125 4.75 C2.77665668 10.28659246 5.19288479 12.99160842 10 16 C12.74547874 17.37050596 12.74547874 17.37050596 15 18 C15 18.33 15 18.66 15 19 C-10.39029212 19.04666293 -35.78057784 19.08196079 -61.17090416 19.10362434 C-72.95932827 19.11394921 -84.74772577 19.12803258 -96.53613281 19.15087891 C-106.8075543 19.17077582 -117.07895653 19.18370763 -127.35039675 19.18817699 C-132.79206705 19.19079066 -138.23368225 19.19695888 -143.67533493 19.21146011 C-148.7920783 19.22498566 -153.90874361 19.22923288 -159.02550316 19.22621536 C-160.90813432 19.22676779 -162.79076796 19.23077505 -164.67338371 19.23841095 C-167.23453223 19.24829366 -169.79538211 19.24599352 -172.35653687 19.24050903 C-173.1094461 19.24633472 -173.86235533 19.2521604 -174.63808 19.25816262 C-179.77175758 19.22824242 -179.77175758 19.22824242 -182 17 C-181.98046875 14.61328125 -181.98046875 14.61328125 -181 12 C-146.06409272 -16.64630041 -37.45211866 -27.57153459 0 0 Z " fill="#393A3A" transform="translate(325,463)"/>
<path d="M0 0 C17.34042553 8.57446809 17.34042553 8.57446809 25 13 C24.45859375 14.2375 24.45859375 14.2375 23.90625 15.5 C18.60195975 28.70178907 18.00133811 40.38183435 23.44921875 53.87109375 C28.9464697 64.96252451 37.65198916 72.33920984 49 77 C60.69350229 80.83925393 70.75082849 79.8313415 81.80834961 75.046875 C86.74404886 72.91468295 86.74404886 72.91468295 90 74 C92.5228621 77.09595081 94.59102568 80.51814316 96.75 83.875 C97.67232422 85.26138672 97.67232422 85.26138672 98.61328125 86.67578125 C99.18949219 87.56394531 99.76570313 88.45210938 100.359375 89.3671875 C100.89014648 90.18300293 101.42091797 90.99881836 101.96777344 91.83935547 C103 94 103 94 102 97 C89.92595875 105.05652219 76.55104584 107.33760882 62.375 107.4375 C61.33118164 107.44765137 60.28736328 107.45780273 59.21191406 107.46826172 C49.81820125 107.3597434 49.81820125 107.3597434 46 104 C44.44737771 102.29782801 42.94413893 100.55965379 41.44604492 98.80932617 C35.69648776 92.03617617 35.69648776 92.03617617 27.62109375 89.17578125 C25.40286901 89.12455204 23.20505749 89.1869973 20.98754883 89.25048828 C16.00315881 89.3133864 13.54259296 88.73699509 9.9375 85.25 C7.91796875 82.7734375 7.91796875 82.7734375 6 80 C5.29488281 79.02289063 4.58976562 78.04578125 3.86328125 77.0390625 C-7.47908608 60.05695984 -11.12160952 40.33631945 -7.76953125 20.3203125 C-6.12625755 13.23004527 -3.34387326 6.45553311 0 0 Z " fill="#436AC4" transform="translate(79,238)"/>
<path d="M0 0 C1.20269531 -0.00257813 2.40539062 -0.00515625 3.64453125 -0.0078125 C4.90652344 -0.00007812 6.16851562 0.00765625 7.46875 0.015625 C8.73074219 0.00789062 9.99273437 0.00015625 11.29296875 -0.0078125 C12.49566406 -0.00523437 13.69835937 -0.00265625 14.9375 0 C16.04544922 0.00225586 17.15339844 0.00451172 18.29492188 0.00683594 C20.96875 0.265625 20.96875 0.265625 22.96875 2.265625 C23.21484566 4.47950935 23.21484566 4.47950935 23.20925903 7.2895813 C23.21200836 8.35251404 23.21475769 9.41544678 23.21759033 10.5105896 C23.21039978 11.6815921 23.20320923 12.8525946 23.19580078 14.05908203 C23.19609283 15.28832397 23.19638489 16.51756592 23.19668579 17.78405762 C23.19552906 21.1599599 23.18548089 24.53561925 23.17153788 27.91147852 C23.15905718 31.4375503 23.15786212 34.96362512 23.15548706 38.48971558 C23.14926444 45.16913175 23.1328431 51.84848266 23.11278808 58.52787006 C23.09045335 66.13114832 23.07944177 73.73442966 23.06939721 81.33773255 C23.04847751 96.98040763 23.01179157 112.62299278 22.96875 128.265625 C12.73875 128.265625 2.50875 128.265625 -8.03125 128.265625 C-8.07635851 111.8718038 -8.11321677 95.47803537 -8.13487434 79.08416939 C-8.14519662 71.47259427 -8.15927505 63.86106038 -8.18212891 56.24951172 C-8.20203375 49.61699232 -8.21495951 42.98450278 -8.21942699 36.35195434 C-8.22203932 32.83852244 -8.228199 29.32517597 -8.24271011 25.81177139 C-8.25876002 21.89419171 -8.25923156 17.97669639 -8.25830078 14.05908203 C-8.26549133 12.88807953 -8.27268188 11.71707703 -8.28009033 10.5105896 C-8.277341 9.44765686 -8.27459167 8.38472412 -8.27175903 7.2895813 C-8.27360262 6.36225756 -8.27544621 5.43493382 -8.27734566 4.47950935 C-7.7163162 -0.5675295 -4.20298278 0.00855756 0 0 Z " fill="#4268C3" transform="translate(394.03125,205.734375)"/>
<path d="M0 0 C0.98226562 -0.020625 1.96453125 -0.04125 2.9765625 -0.0625 C18.49175611 -0.14415891 32.18107936 5.64882493 43.33203125 16.4296875 C53.87728424 28.12503721 58.72769165 42.12684639 58.1953125 57.83203125 C56.70813909 73.70125974 50.12359538 86.49349555 37.82421875 96.80859375 C22.61926975 108.24164758 5.3180116 109.81334485 -13.05859375 107.82421875 C-26.86819008 105.31478263 -38.61972053 97.66710532 -46.875 86.375 C-56.58939796 71.79233883 -58.42735177 55.60915491 -55.47265625 38.46484375 C-50.86693549 23.46165895 -40.7057424 12.58651365 -27.125 5.25 C-17.96665488 1.27176872 -9.90778666 0.05080916 0 0 Z M-32.125 21.25 C-32.77210938 21.77335937 -33.41921875 22.29671875 -34.0859375 22.8359375 C-41.63925071 29.5976371 -46.66210077 40.39067501 -47.33984375 50.43359375 C-47.69845365 63.75953781 -44.17842095 76.10081814 -34.875 86.0625 C-25.49413095 94.69786952 -13.66709552 99.65014258 -0.93359375 99.4609375 C8.49756537 98.75261679 16.20165767 95.67748603 23.875 90.25 C24.51179688 89.80914062 25.14859375 89.36828125 25.8046875 88.9140625 C34.85093126 81.95850619 39.67387428 71.20322086 41.875 60.25 C43.25518728 47.64010713 39.59732266 36.55881747 31.83203125 26.640625 C23.2287359 16.63059461 13.54136674 11.05683561 0.29296875 10.0546875 C-12.2549562 9.56132217 -22.50596313 13.26246055 -32.125 21.25 Z " fill="#FAAC3D" transform="translate(437.125,28.75)"/>
<path d="M0 0 C60.39 0 120.78 0 183 0 C182.67 6.6 182.34 13.2 182 20 C121.94 20 61.88 20 0 20 C0 13.4 0 6.8 0 0 Z " fill="#515150" transform="translate(143,368)"/>
<path d="M0 0 C1.3096875 0.00322266 2.619375 0.00644531 3.96875 0.00976562 C5.2784375 -0.00634766 6.588125 -0.02246094 7.9375 -0.0390625 C9.1853125 -0.03970703 10.433125 -0.04035156 11.71875 -0.04101562 C12.86859375 -0.04399658 14.0184375 -0.04697754 15.203125 -0.05004883 C16.11578125 0.07281494 17.0284375 0.19567871 17.96875 0.32226562 C20.05459526 3.45103352 20.22090614 4.15979008 20.23617554 7.71824646 C20.24470551 8.6169043 20.25323547 9.51556213 20.26202393 10.44145203 C20.26111755 11.42491104 20.26021118 12.40837006 20.25927734 13.42163086 C20.26599457 14.45927582 20.27271179 15.49692078 20.27963257 16.56600952 C20.29866805 20.00434119 20.30253946 23.44247826 20.3046875 26.88085938 C20.31111111 29.26595644 20.31783913 31.65105269 20.32485962 34.03614807 C20.33684597 39.03884712 20.340539 44.04147705 20.33935547 49.04418945 C20.3391521 55.46163316 20.36646703 61.8786349 20.40089989 68.29597378 C20.42311129 73.22270249 20.42719479 78.14932383 20.42613602 83.07609749 C20.42850018 85.44243965 20.43736922 87.80878441 20.45280075 90.17507744 C20.47234558 93.48153742 20.46666768 96.78703109 20.45458984 100.09350586 C20.46582886 101.07494064 20.47706787 102.05637543 20.48864746 103.06755066 C20.42710992 109.68036186 20.42710992 109.68036186 18.10722351 112.92921448 C15.33519444 114.73497838 13.51257776 114.83874532 10.21484375 114.85351562 C9.11333984 114.85867188 8.01183594 114.86382812 6.87695312 114.86914062 C5.73162109 114.85367188 4.58628906 114.83820313 3.40625 114.82226562 C2.25705078 114.83773437 1.10785156 114.85320312 -0.07617188 114.86914062 C-1.72649414 114.86140625 -1.72649414 114.86140625 -3.41015625 114.85351562 C-4.4163501 114.84900391 -5.42254395 114.84449219 -6.45922852 114.83984375 C-9.03125 114.32226562 -9.03125 114.32226562 -10.66861248 112.57539558 C-12.20728932 110.03118347 -12.40609695 108.69934824 -12.4054718 105.75460815 C-12.41248611 104.84327118 -12.41950043 103.9319342 -12.42672729 102.99298096 C-12.41908356 102.00062439 -12.41143982 101.00826782 -12.40356445 99.98583984 C-12.40721512 98.9350827 -12.41086578 97.88432556 -12.41462708 96.80172729 C-12.42273697 93.32663848 -12.40912022 89.85201522 -12.39453125 86.37695312 C-12.39401278 83.96607463 -12.39452998 81.5551957 -12.39604187 79.14431763 C-12.39595213 74.09207854 -12.38551773 69.03999897 -12.36743164 63.98779297 C-12.34472026 57.49967202 -12.34420462 51.01178374 -12.35094929 44.52363396 C-12.35428412 39.54637571 -12.34766875 34.56917089 -12.33782005 29.59192276 C-12.3339612 27.19882613 -12.33282266 24.80572357 -12.3344059 22.41262436 C-12.33477513 19.07493423 -12.32219699 15.73754712 -12.3059082 12.39990234 C-12.30838562 11.40349731 -12.31086304 10.40709229 -12.31341553 9.38049316 C-12.30633072 8.47479584 -12.29924591 7.56909851 -12.29194641 6.63595581 C-12.28989354 5.84656553 -12.28784067 5.05717525 -12.28572559 4.24386406 C-11.49956997 -1.69256148 -4.47949589 0.02545168 0 0 Z " fill="#AEC46F" transform="translate(301.03125,231.677734375)"/>
<path d="M0 0 C12.97105066 11.75501466 21.32933654 28.59831361 22.3515625 46.046875 C23.12837624 67.22762369 17.38506161 85.06523842 3.48828125 101.41015625 C-0.65262479 105.72007886 -5.2353672 109.39312844 -10 113 C-13.7971506 108.47475498 -17.0018061 103.61030105 -20.25 98.6875 C-20.80429688 97.85154297 -21.35859375 97.01558594 -21.9296875 96.15429688 C-23.28857434 94.10425208 -24.6452753 92.05279662 -26 90 C-25.25878906 89.26394531 -24.51757812 88.52789062 -23.75390625 87.76953125 C-12.0318574 75.98097432 -6.55421438 66.13695475 -6.56396484 49.2800293 C-6.79313952 39.13072502 -10.29561855 31.31369615 -16.86328125 23.62109375 C-18 22 -18 22 -18 19 C-16.45532227 17.13061523 -16.45532227 17.13061523 -14.31640625 15.05859375 C-13.17268555 13.93614258 -13.17268555 13.93614258 -12.00585938 12.79101562 C-11.19955078 12.01435547 -10.39324219 11.23769531 -9.5625 10.4375 C-7.97839733 8.89665797 -6.39626397 7.35378792 -4.81640625 5.80859375 C-4.10943604 5.12595459 -3.40246582 4.44331543 -2.67407227 3.73999023 C-0.9215835 2.09137973 -0.9215835 2.09137973 0 0 Z " fill="#AFC46F" transform="translate(193,221)"/>
<path d="M0 0 C1.10472656 -0.00257813 2.20945313 -0.00515625 3.34765625 -0.0078125 C4.50136719 -0.00007813 5.65507812 0.00765625 6.84375 0.015625 C7.99746094 0.00789063 9.15117187 0.00015625 10.33984375 -0.0078125 C11.44457031 -0.00523437 12.54929687 -0.00265625 13.6875 0 C15.20633789 0.00338379 15.20633789 0.00338379 16.75585938 0.00683594 C19.34375 0.265625 19.34375 0.265625 22.34375 2.265625 C22.64609442 4.91116897 22.75323993 7.32396076 22.73193359 9.97241211 C22.73719055 10.76767807 22.74244751 11.56294403 22.74786377 12.38230896 C22.76110125 15.01939354 22.75231184 17.65587769 22.7421875 20.29296875 C22.74420736 22.12138485 22.74711807 23.94980017 22.75088501 25.7782135 C22.7553136 29.61418309 22.74886091 33.44994338 22.73486328 37.28588867 C22.71778311 42.20690825 22.72760173 47.12743659 22.74558067 52.04843807 C22.7564144 55.82564504 22.75297386 59.6027353 22.7451973 63.37994576 C22.74319352 65.19446432 22.74566076 67.00899342 22.75263596 68.82349968 C22.7602424 71.35910015 22.74865747 73.89390244 22.73193359 76.42944336 C22.74104263 77.55869232 22.74104263 77.55869232 22.75033569 78.71075439 C22.68843558 83.76839905 22.68843558 83.76839905 20.98123169 86.23112488 C18.54401815 87.77086589 16.55000873 87.65449651 13.6875 87.6640625 C12.58277344 87.66792969 11.47804688 87.67179687 10.33984375 87.67578125 C9.18613281 87.66417969 8.03242188 87.65257812 6.84375 87.640625 C5.69003906 87.65222656 4.53632813 87.66382813 3.34765625 87.67578125 C2.24292969 87.67191406 1.13820312 87.66804688 0 87.6640625 C-1.01255859 87.66067871 -2.02511719 87.65729492 -3.06835938 87.65380859 C-5.65625 87.265625 -5.65625 87.265625 -7.29373169 86.23112488 C-9.40564293 83.18458873 -9.07328726 80.00643605 -9.04443359 76.42944336 C-9.04969055 75.63242508 -9.05494751 74.8354068 -9.06036377 74.01423645 C-9.07357598 71.37778166 -9.06482239 68.74192975 -9.0546875 66.10546875 C-9.05670769 64.27608626 -9.05961866 62.44670456 -9.06338501 60.61732483 C-9.06780984 56.78313531 -9.06137146 52.9491554 -9.04736328 49.11499023 C-9.03025919 44.19278021 -9.04011925 39.27106046 -9.05808067 34.34886837 C-9.06890393 30.57170393 -9.06547911 26.79465638 -9.0576973 23.01748848 C-9.05569187 21.2021434 -9.05816652 19.38678781 -9.06513596 17.571455 C-9.07272791 15.03815321 -9.06117912 12.50565389 -9.04443359 9.97241211 C-9.05050629 9.21755524 -9.05657898 8.46269836 -9.06283569 7.68496704 C-9.03720093 5.59898376 -9.03720093 5.59898376 -8.65625 2.265625 C-5.25067548 -0.00475801 -3.99905826 0.00890942 0 0 Z " fill="#B53117" transform="translate(249.65625,258.734375)"/>
<path d="M0 0 C27.72 0 55.44 0 84 0 C84 13.53 84 27.06 84 41 C77.47944315 39.22166631 71.17668321 37.48565582 64.8515625 35.21484375 C64.12380615 34.95742905 63.3960498 34.70001434 62.64624023 34.43479919 C60.30456696 33.60587084 57.96479655 32.77170916 55.625 31.9375 C52.3339592 30.77036545 49.04198275 29.6058809 45.75 28.44140625 C44.92915924 28.15064209 44.10831848 27.85987793 43.26260376 27.56030273 C37.97555141 25.68987309 32.68022439 23.84556895 27.375 22.02734375 C26.70914886 21.79903366 26.04329773 21.57072357 25.35726929 21.335495 C22.25589965 20.27316934 19.15326033 19.21469354 16.04931641 18.15991211 C10.59797478 16.29540107 5.25036124 14.37552367 0 12 C0 8.04 0 4.08 0 0 Z " fill="#3A3A3A" transform="translate(212,388)"/>
<path d="M0 0 C1.19947266 0.00064453 2.39894531 0.00128906 3.63476562 0.00195312 C4.88837891 0.01806641 6.14199219 0.03417969 7.43359375 0.05078125 C8.69107422 0.04755859 9.94855469 0.04433594 11.24414062 0.04101562 C20.60421317 0.09640067 20.60421317 0.09640067 22.87109375 2.36328125 C23.13179016 4.74754333 23.13179016 4.74754333 23.14575195 7.77514648 C23.16004997 9.47216957 23.16004997 9.47216957 23.17463684 11.20347595 C23.17372543 12.43054764 23.17281403 13.65761932 23.171875 14.921875 C23.17616013 16.17710464 23.18044525 17.43233429 23.18486023 18.7256012 C23.19061273 21.38467331 23.19202834 24.04335842 23.18676758 26.70239258 C23.18097423 30.11009962 23.19789766 33.5172629 23.22111225 36.92488003 C23.23938724 40.17387447 23.23566435 43.42283838 23.234375 46.671875 C23.24358475 47.89692245 23.25279449 49.12196991 23.26228333 50.38414001 C23.25605453 51.5186409 23.24982574 52.65314178 23.2434082 53.82202148 C23.24403763 54.82192612 23.24466705 55.82183075 23.24531555 56.85203552 C22.87109375 59.36328125 22.87109375 59.36328125 21.50857544 61.18435669 C17.72345585 63.90949889 11.90675995 62.8283779 7.43359375 62.80078125 C6.28826172 62.82076172 5.14292969 62.84074219 3.96289062 62.86132812 C2.86138672 62.86068359 1.75988281 62.86003906 0.625 62.859375 C-0.88598267 62.86215454 -0.88598267 62.86215454 -2.42749023 62.86499023 C-5.9087091 62.21845569 -6.92447963 61.09686272 -9.12890625 58.36328125 C-9.63011169 55.81443787 -9.63011169 55.81443787 -9.63061523 52.90795898 C-9.63999619 51.81680283 -9.64937714 50.72564667 -9.65904236 49.60142517 C-9.64780838 48.42842361 -9.6365744 47.25542206 -9.625 46.046875 C-9.62645523 44.83886734 -9.62791046 43.63085968 -9.62940979 42.38624573 C-9.62775015 39.83340034 -9.6161818 37.28054502 -9.59545898 34.7277832 C-9.56649097 30.81223242 -9.57485253 26.8980338 -9.58789062 22.98242188 C-9.58165385 20.50389965 -9.57326339 18.0253817 -9.5625 15.546875 C-9.56543564 14.37184921 -9.56837128 13.19682343 -9.57139587 11.9861908 C-9.5587117 10.8981868 -9.54602753 9.8101828 -9.53295898 8.68920898 C-9.527556 7.73086655 -9.52215302 6.77252411 -9.5165863 5.78514099 C-9.12890625 3.36328125 -9.12890625 3.36328125 -7.77786255 1.55368042 C-5.24743201 -0.27306442 -3.08267848 -0.00833339 0 0 Z " fill="#FA9A12" transform="translate(346.12890625,283.63671875)"/>
<path d="M0 0 C1.13501953 0.00322266 2.27003906 0.00644531 3.43945312 0.00976562 C4.54740234 -0.00634766 5.65535156 -0.02246094 6.796875 -0.0390625 C14.82124098 -0.04380784 21.52956876 0.78462913 28.31445312 5.25976562 C31.69474921 8.64006171 32.66724199 11.44408184 32.68945312 16.19726562 C32.59211733 20.6033325 31.91122538 23.61136697 29.37695312 27.32226562 C26.07695312 30.32226562 26.07695312 30.32226562 23.37695312 30.32226562 C23.37695312 30.98226562 23.37695312 31.64226562 23.37695312 32.32226562 C23.97507813 32.40476563 24.57320312 32.48726562 25.18945312 32.57226562 C28.09232181 33.56753489 28.81700091 34.69870962 30.37695312 37.32226562 C32.86167556 42.68403509 33.02322513 48.50581755 32.37695312 54.32226562 C31.71695313 54.98226562 31.05695313 55.64226562 30.37695312 56.32226562 C27.75195312 55.94726562 27.75195312 55.94726562 25.37695312 55.32226562 C25.32087891 54.23558594 25.32087891 54.23558594 25.26367188 53.12695312 C24.76056577 45.29561248 24.76056577 45.29561248 21.37695312 38.32226562 C16.73496259 34.51084994 11.79965655 34.77662578 6.06445312 34.63476562 C5.13310547 34.60060547 4.20175781 34.56644531 3.2421875 34.53125 C0.9538964 34.44910622 -1.33402792 34.37984901 -3.62304688 34.32226562 C-3.61257324 34.91765137 -3.60209961 35.51303711 -3.59130859 36.12646484 C-3.54980738 38.81668905 -3.52373983 41.50684599 -3.49804688 44.19726562 C-3.48128906 45.13441406 -3.46453125 46.0715625 -3.44726562 47.03710938 C-3.44082031 47.93300781 -3.434375 48.82890625 -3.42773438 49.75195312 C-3.41726074 50.57937012 -3.40678711 51.40678711 -3.39599609 52.25927734 C-3.62304688 54.32226562 -3.62304688 54.32226562 -5.62304688 56.32226562 C-8.24804687 55.94726562 -8.24804687 55.94726562 -10.62304688 55.32226562 C-10.67362652 47.81090154 -10.70872945 40.29958113 -10.73291016 32.78808594 C-10.74298726 30.2311031 -10.75664913 27.67413183 -10.77392578 25.1171875 C-10.79809905 21.4485387 -10.80951273 17.78004184 -10.81835938 14.11132812 C-10.82868195 12.96234039 -10.83900452 11.81335266 -10.84963989 10.62954712 C-10.84979095 9.56859833 -10.84994202 8.50764954 -10.85009766 7.41455078 C-10.85453888 6.4774527 -10.8589801 5.54035461 -10.86355591 4.57485962 C-10.23083463 -1.35117205 -4.60066422 0.03017728 0 0 Z " fill="#486EC6" transform="translate(139.623046875,99.677734375)"/>
<path d="M0 0 C1.04349609 -0.02449219 2.08699219 -0.04898438 3.16210938 -0.07421875 C11.08482772 -0.10372608 19.44841823 0.75672529 25.63085938 6.1940918 C28.76178232 9.68616613 29.93999449 12.76255307 30.125 17.4375 C29.7366741 23.18295818 28.48755806 27.44994194 24.3125 31.625 C17.21072153 36.14431357 11.9229026 36.78370178 3.625 36.5625 C2.65498047 36.54896484 1.68496094 36.53542969 0.68554688 36.52148438 C-1.68904481 36.48639189 -4.0633475 36.432594 -6.4375 36.375 C-6.4375 42.645 -6.4375 48.915 -6.4375 55.375 C-8.9125 55.87 -8.9125 55.87 -11.4375 56.375 C-13.98023722 53.83226278 -13.6901488 52.93060561 -13.69628906 49.40625 C-13.70259338 48.37177734 -13.70889771 47.33730469 -13.71539307 46.27148438 C-13.7113446 45.15064453 -13.70729614 44.02980469 -13.703125 42.875 C-13.70503845 41.72837891 -13.7069519 40.58175781 -13.70892334 39.40039062 C-13.71028622 36.97265402 -13.70658267 34.54491016 -13.69824219 32.1171875 C-13.68754438 28.39045927 -13.69813431 24.66421314 -13.7109375 20.9375 C-13.70961592 18.58333226 -13.70705357 16.22916483 -13.703125 13.875 C-13.70717346 12.75416016 -13.71122192 11.63332031 -13.71539307 10.47851562 C-13.70908875 9.44404297 -13.70278442 8.40957031 -13.69628906 7.34375 C-13.69469788 6.43044922 -13.69310669 5.51714844 -13.69146729 4.57617188 C-12.943296 -1.90833886 -4.88572406 0.00584067 0 0 Z " fill="#4A6FC6" transform="translate(198.4375,99.625)"/>
<path d="M0 0 C2.30664062 -0.37231445 2.30664062 -0.37231445 5.15625 -0.36328125 C6.17847656 -0.36263672 7.20070313 -0.36199219 8.25390625 -0.36132812 C9.32511719 -0.34521484 10.39632812 -0.32910156 11.5 -0.3125 C13.10681641 -0.31733398 13.10681641 -0.31733398 14.74609375 -0.32226562 C22.73312996 -0.26687004 22.73312996 -0.26687004 25 2 C25.45091675 5.45943333 25.32406422 8.95204434 25.3125 12.4375 C25.32861328 13.40494141 25.34472656 14.37238281 25.36132812 15.36914062 C25.36229492 16.76229492 25.36229492 16.76229492 25.36328125 18.18359375 C25.36626221 19.03493896 25.36924316 19.88628418 25.37231445 20.76342773 C24.92103058 23.47438616 24.16540142 24.35766786 22 26 C19.27492202 26.39078556 16.76878044 26.13616953 14 26 C14 30.95 14 35.9 14 41 C15.258125 40.938125 16.51625 40.87625 17.8125 40.8125 C20.36853607 40.68679331 21.54313423 40.65239231 23.6027832 42.21948242 C25.41294454 44.5262283 25.3867813 45.87053125 25.3984375 48.78125 C25.40423828 50.16763672 25.40423828 50.16763672 25.41015625 51.58203125 C25.39855469 52.54496094 25.38695313 53.50789063 25.375 54.5 C25.38660156 55.46292969 25.39820312 56.42585938 25.41015625 57.41796875 C25.40628906 58.34222656 25.40242188 59.26648438 25.3984375 60.21875 C25.39505371 61.06373047 25.39166992 61.90871094 25.38818359 62.77929688 C25 65 25 65 23.77392578 66.77392578 C21.46827256 68.36751104 20.00951805 68.38726166 17.21875 68.3984375 C16.29449219 68.40230469 15.37023437 68.40617187 14.41796875 68.41015625 C13.45503906 68.39855469 12.49210937 68.38695312 11.5 68.375 C10.53707031 68.38660156 9.57414062 68.39820313 8.58203125 68.41015625 C7.19564453 68.40435547 7.19564453 68.40435547 5.78125 68.3984375 C4.93626953 68.39505371 4.09128906 68.39166992 3.22070312 68.38818359 C1 68 1 68 -0.77172852 66.77392578 C-3.23720802 63.21316767 -2.46828713 58.6814524 -2.4375 54.5 C-2.45748047 53.53707031 -2.47746094 52.57414062 -2.49804688 51.58203125 C-2.49740234 50.65777344 -2.49675781 49.73351562 -2.49609375 48.78125 C-2.49887329 47.5137793 -2.49887329 47.5137793 -2.50170898 46.22070312 C-2 44 -2 44 -0.40649414 42.20117188 C2 41 2 41 9 41 C9 36.05 9 31.1 9 26 C7.741875 26.061875 6.48375 26.12375 5.1875 26.1875 C2.62149225 26.3136971 1.45585851 26.35024967 -0.60498047 24.7668457 C-2.38280439 22.51516357 -2.37384187 21.28258693 -2.36328125 18.4375 C-2.36263672 17.55835938 -2.36199219 16.67921875 -2.36132812 15.7734375 C-2.34521484 14.85820312 -2.32910156 13.94296875 -2.3125 13 C-2.31572266 12.08476562 -2.31894531 11.16953125 -2.32226562 10.2265625 C-2.26721939 3.40082908 -2.26721939 3.40082908 0 0 Z " fill="#466CC5" transform="translate(102,402)"/>
<path d="M0 0 C2.07762924 0.00536918 4.15504324 0.00002166 6.23266602 -0.00634766 C23.54488146 -0.02034361 23.54488146 -0.02034361 27.49633789 2.28662109 C29.04120962 5.08041212 28.87470462 7.46530173 28.82836914 10.63037109 C28.82450195 11.77505859 28.82063477 12.91974609 28.81665039 14.09912109 C28.51586914 17.13037109 28.51586914 17.13037109 26.51586914 20.13037109 C22.28070107 21.50057253 17.9194215 21.20500757 13.51586914 21.13037109 C13.56227539 21.71044922 13.60868164 22.29052734 13.65649414 22.88818359 C13.91775797 28.54267936 13.33264511 31.65929068 9.51586914 36.13037109 C5.27397724 38.95829903 1.49713171 38.91159395 -3.48413086 38.13037109 C-6.60704251 36.45024463 -8.87577923 34.34707436 -10.48413086 31.13037109 C-10.70880916 29.59368244 -10.89209891 28.05069056 -11.04663086 26.50537109 C-11.13041992 25.68810547 -11.21420898 24.87083984 -11.30053711 24.02880859 C-11.36112305 23.40232422 -11.42170898 22.77583984 -11.48413086 22.13037109 C-12.32717773 22.00919922 -13.17022461 21.88802734 -14.03881836 21.76318359 C-15.13452148 21.59560547 -16.23022461 21.42802734 -17.35913086 21.25537109 C-18.99495117 21.01173828 -18.99495117 21.01173828 -20.66381836 20.76318359 C-23.48413086 20.13037109 -23.48413086 20.13037109 -25.48413086 18.13037109 C-25.78491211 14.97802734 -25.78491211 14.97802734 -25.79663086 11.19287109 C-25.81338867 9.94634766 -25.83014648 8.69982422 -25.84741211 7.41552734 C-25.48413086 4.13037109 -25.48413086 4.13037109 -24.19360352 2.4675293 C-18.51173276 -1.9768589 -6.95468155 -0.02138637 0 0 Z " fill="#CDD7FC" transform="translate(408.484130859375,406.86962890625)"/>
<path d="M0 0 C0.85098267 -0.00953201 1.70196533 -0.01906403 2.57873535 -0.02888489 C3.49441284 -0.02797348 4.41009033 -0.02706207 5.35351562 -0.02612305 C6.29658569 -0.03040817 7.23965576 -0.0346933 8.21130371 -0.03910828 C10.20515134 -0.04485112 12.19901991 -0.04535218 14.19287109 -0.04101562 C17.2480834 -0.03785389 20.3023292 -0.06132156 23.35742188 -0.08666992 C25.29361857 -0.08894269 27.22981787 -0.08964652 29.16601562 -0.08862305 C30.53953186 -0.10243767 30.53953186 -0.10243767 31.9407959 -0.11653137 C33.2172699 -0.10718819 33.2172699 -0.10718819 34.51953125 -0.09765625 C35.26771118 -0.09828568 36.01589111 -0.0989151 36.78674316 -0.0995636 C39.31011514 0.37904261 40.19865483 1.27186387 41.75976562 3.2746582 C42.14794922 5.49536133 42.14794922 5.49536133 42.15820312 8.0559082 C42.16400391 9.44229492 42.16400391 9.44229492 42.16992188 10.85668945 C42.15832031 11.81961914 42.14671875 12.78254883 42.13476562 13.7746582 C42.14636719 14.73758789 42.15796875 15.70051758 42.16992188 16.69262695 C42.16605469 17.61688477 42.1621875 18.54114258 42.15820312 19.4934082 C42.15481934 20.33838867 42.15143555 21.18336914 42.14794922 22.05395508 C41.66547533 24.81406987 40.93068407 25.54682162 38.75976562 27.2746582 C36.78674316 27.65560913 36.78674316 27.65560913 34.51953125 27.6628418 C33.66854858 27.67229828 32.81756592 27.68175476 31.9407959 27.6914978 C31.02511841 27.68542511 30.10944092 27.67935242 29.16601562 27.6730957 C28.22294556 27.67596588 27.27987549 27.67883606 26.30822754 27.68179321 C24.31436564 27.68383467 22.32048375 27.67829913 20.32666016 27.66577148 C17.27135518 27.64971909 14.21737311 27.66561753 11.16210938 27.68481445 C9.22590853 27.68283204 7.28970852 27.67898839 5.35351562 27.6730957 C3.97999939 27.68220474 3.97999939 27.68220474 2.57873535 27.6914978 C1.72775269 27.68204132 0.87677002 27.67258484 0 27.6628418 C-1.1222699 27.65926163 -1.1222699 27.65926163 -2.26721191 27.65560913 C-4.78936457 27.16863221 -5.68161493 26.2813576 -7.24023438 24.2746582 C-7.62841797 21.94628906 -7.62841797 21.94628906 -7.63867188 19.23950195 C-7.64253906 18.26561523 -7.64640625 17.29172852 -7.65039062 16.28833008 C-7.63878906 15.27319336 -7.6271875 14.25805664 -7.61523438 13.2121582 C-7.62683594 12.1931543 -7.6384375 11.17415039 -7.65039062 10.12426758 C-7.64652344 9.15166992 -7.64265625 8.17907227 -7.63867188 7.17700195 C-7.63528809 6.28489014 -7.6319043 5.39277832 -7.62841797 4.47363281 C-7.50031738 3.74797119 -7.3722168 3.02230957 -7.24023438 2.2746582 C-4.15579891 0.21836789 -3.48907047 0.02148616 0 0 Z " fill="#446AC4" transform="translate(60.240234375,345.725341796875)"/>
<path d="M0 0 C19.79070373 0 36.5442026 6.35178905 51 20 C49.5735422 23.2586636 47.83295838 25.4024854 45.3046875 27.890625 C44.58925781 28.59960938 43.87382812 29.30859375 43.13671875 30.0390625 C42.01716797 31.13347656 42.01716797 31.13347656 40.875 32.25 C40.12089844 32.99507812 39.36679688 33.74015625 38.58984375 34.5078125 C36.73099228 36.3431342 34.86762995 38.1736191 33 40 C29.97468705 38.51496197 27.16098977 36.86516744 24.3125 35.0625 C14.70859392 29.33924202 6.04021378 28.42182635 -5 28 C-5 27.67 -5 27.34 -5 27 C-3.35 27 -1.7 27 0 27 C0 18.09 0 9.18 0 0 Z " fill="#F99911" transform="translate(142,201)"/>
<path d="M0 0 C1.12347839 0.00607269 1.12347839 0.00607269 2.26965332 0.01226807 C3.03894165 0.01035461 3.80822998 0.00844116 4.60083008 0.00646973 C6.22823412 0.00510799 7.85564902 0.00880368 9.48303223 0.01715088 C11.97855963 0.02785086 14.47336714 0.01725555 16.96887207 0.00445557 C18.54830075 0.00577716 20.12772898 0.00833956 21.70715332 0.01226807 C22.45613892 0.0082196 23.20512451 0.00417114 23.97680664 0 C29.25848089 0.04797064 29.25848089 0.04797064 31.48840332 2.27789307 C31.48840332 3.59789307 31.48840332 4.91789307 31.48840332 6.27789307 C28.56642642 7.73888151 25.98946857 7.38924208 22.73059082 7.37554932 C21.73601364 7.3734269 21.73601364 7.3734269 20.72134399 7.3712616 C18.60198469 7.3656606 16.48273073 7.35310807 14.36340332 7.34039307 C12.92720693 7.33537819 11.49100888 7.33081526 10.05480957 7.32672119 C6.53260084 7.3165414 3.01062011 7.29696644 -0.51159668 7.27789307 C-0.51159668 13.21789307 -0.51159668 19.15789307 -0.51159668 25.27789307 C8.72840332 25.27789307 17.96840332 25.27789307 27.48840332 25.27789307 C27.98340332 27.75289307 27.98340332 27.75289307 28.48840332 30.27789307 C27.48840332 31.27789307 27.48840332 31.27789307 24.80456543 31.39141846 C23.63675537 31.38618164 22.46894531 31.38094482 21.26574707 31.37554932 C20.00568848 31.37232666 18.74562988 31.369104 17.4473877 31.36578369 C16.10689223 31.3574271 14.76639744 31.34896214 13.42590332 31.34039307 C12.0815039 31.33537967 10.73710272 31.33081648 9.3927002 31.32672119 C6.09124899 31.31488803 2.78982072 31.29695192 -0.51159668 31.27789307 C-0.51159668 37.21789307 -0.51159668 43.15789307 -0.51159668 49.27789307 C2.70203613 49.24308838 2.70203613 49.24308838 5.98059082 49.20758057 C8.05236214 49.19198934 10.12412695 49.17984162 12.19592285 49.16802979 C13.63735879 49.15796344 15.07877427 49.14430926 16.5201416 49.12701416 C18.59034266 49.10279295 20.66027408 49.09141665 22.73059082 49.08258057 C24.60013428 49.06687012 24.60013428 49.06687012 26.50744629 49.05084229 C29.48840332 49.27789307 29.48840332 49.27789307 31.48840332 51.27789307 C30.95268903 54.81360735 30.95268903 54.81360735 29.48840332 56.27789307 C26.91820847 56.391214 24.37588855 56.44206792 21.80480957 56.44586182 C20.64875465 56.45085442 20.64875465 56.45085442 19.46934509 56.45594788 C17.83597411 56.46102017 16.20259272 56.46335611 14.56921387 56.4631958 C12.06489033 56.46538086 9.56100811 56.48352902 7.0567627 56.50250244 C5.47277983 56.50543654 3.88879487 56.50742123 2.30480957 56.50836182 C1.55268692 56.51554733 0.80056427 56.52273285 0.02565002 56.53013611 C-5.28277389 56.50671586 -5.28277389 56.50671586 -7.51159668 54.27789307 C-7.76556396 52.07672119 -7.76556396 52.07672119 -7.77038574 49.30914307 C-7.77669006 48.27467041 -7.78299438 47.24019775 -7.78948975 46.17437744 C-7.78544128 45.0535376 -7.78139282 43.93269775 -7.77722168 42.77789307 C-7.77913513 41.63127197 -7.78104858 40.48465088 -7.78302002 39.30328369 C-7.7843829 36.87554709 -7.78067935 34.44780323 -7.77233887 32.02008057 C-7.76164106 28.29335234 -7.77223099 24.56710621 -7.78503418 20.84039307 C-7.7837126 18.48622533 -7.78115025 16.1320579 -7.77722168 13.77789307 C-7.78127014 12.65705322 -7.7853186 11.53621338 -7.78948975 10.38140869 C-7.78318542 9.34693604 -7.7768811 8.31246338 -7.77038574 7.24664307 C-7.76879456 6.33334229 -7.76720337 5.4200415 -7.76556396 4.47906494 C-7.21124467 -0.32530201 -4.10856143 0.03731588 0 0 Z " fill="#476DC5" transform="translate(85.5115966796875,99.72210693359375)"/>
<path d="M0 0 C0.99 0.495 0.99 0.495 2 1 C5.10296846 10.30890539 2.66274798 20.21588759 -1 29 C-7.4847517 41.69041283 -16.91960072 49.25879895 -30.41796875 53.81640625 C-42.29582112 56.82265915 -54.21119209 54.82839782 -64.72265625 48.59375 C-76.12975391 40.61073826 -76.12975391 40.61073826 -78 35 C-75.27804754 36.0722843 -72.64348387 37.17662267 -70.01953125 38.4765625 C-65.12432419 40.58056942 -60.00324959 40.97688049 -54.75 41.5625 C-52.78562162 41.78572482 -50.82201601 42.01588949 -48.859375 42.25390625 C-47.99795898 42.35002197 -47.13654297 42.4461377 -46.24902344 42.54516602 C-44 43 -44 43 -41 45 C-40.60941406 44.37867188 -40.21882813 43.75734375 -39.81640625 43.1171875 C-37.63343794 40.57273842 -36.11983928 40.08657014 -32.9375 39.125 C-19.36900029 34.51852123 -10.53885636 26.66033892 -4 14 C-1.93384605 9.45767711 -0.62051152 4.96409218 0 0 Z " fill="#E1870F" transform="translate(476,73)"/>
<path d="M0 0 C1.30737373 -0.00956978 1.30737373 -0.00956978 2.64115906 -0.01933289 C3.57660049 -0.02044571 4.51204193 -0.02155853 5.47583008 -0.02270508 C6.44764725 -0.02603348 7.41946442 -0.02936188 8.42073059 -0.03279114 C10.47758512 -0.03785137 12.53444785 -0.04019974 14.59130859 -0.04003906 C17.71636768 -0.04221613 20.84106824 -0.06035551 23.96606445 -0.0793457 C25.96931846 -0.08228181 27.97257414 -0.08426515 29.97583008 -0.08520508 C30.90115036 -0.09239059 31.82647064 -0.09957611 32.77983093 -0.10697937 C40.28588439 -0.0809541 48.45850403 0.30165641 54.55786133 5.14526367 C57.40252275 9.02497058 57.90265381 11.68655837 57.74536133 16.45776367 C57.70475586 18.06071289 57.70475586 18.06071289 57.66333008 19.69604492 C57.62852539 20.50428711 57.5937207 21.3125293 57.55786133 22.14526367 C55.57786133 22.14526367 53.59786133 22.14526367 51.55786133 22.14526367 C51.35290039 21.57936523 51.14793945 21.0134668 50.93676758 20.43041992 C50.66735352 19.69694336 50.39793945 18.9634668 50.12036133 18.20776367 C49.85352539 17.47686523 49.58668945 16.7459668 49.31176758 15.99291992 C48.70399185 14.16220689 48.70399185 14.16220689 47.55786133 13.14526367 C45.85560293 13.03600422 44.14883381 12.99618993 42.44311523 12.98413086 C41.35173248 12.97452332 40.26034973 12.96491577 39.13589478 12.95501709 C37.94740936 12.95076721 36.75892395 12.94651733 35.53442383 12.94213867 C34.32217133 12.9364386 33.10991882 12.93073853 31.8609314 12.92486572 C29.29019041 12.91539828 26.71943719 12.90887485 24.14868164 12.9050293 C20.20673542 12.89532246 16.26531004 12.86431404 12.32348633 12.83276367 C9.83130194 12.82623423 7.3391138 12.82098353 4.84692383 12.81713867 C3.66248688 12.80479187 2.47804993 12.79244507 1.25772095 12.77972412 C0.16003387 12.78272522 -0.9376532 12.78572632 -2.06860352 12.78881836 C-3.51969009 12.78334991 -3.51969009 12.78334991 -5.00009155 12.777771 C-7.88922125 13.21254312 -8.72624046 13.82168234 -10.44213867 16.14526367 C-11.64263274 19.24533568 -11.64263274 19.24533568 -12.44213867 22.14526367 C-14.09213867 21.81526367 -15.74213867 21.48526367 -17.44213867 21.14526367 C-18.64857433 17.52595669 -18.76482426 14.95295362 -18.44213867 11.14526367 C-15.98853506 6.33242581 -13.12500276 3.77937472 -8.44213867 1.14526367 C-5.57882186 0.25114201 -2.99171348 0.01493834 0 0 Z " fill="#313131" transform="translate(390.442138671875,333.854736328125)"/>
<path d="M0 0 C1.57524445 -0.00300613 1.57524445 -0.00300613 3.18231201 -0.006073 C22.61570204 -0.01512657 41.6862783 0.98139773 60.875 4.25 C60.875 4.58 60.875 4.91 60.875 5.25 C58.16801197 5.73799444 55.45976677 6.21537694 52.75 6.6875 C52.00878906 6.82220703 51.26757812 6.95691406 50.50390625 7.09570312 C38.79241624 9.11322872 26.93800023 9.41042791 15.078125 9.453125 C13.80563904 9.45882507 12.53315308 9.46452515 11.22210693 9.47039795 C8.54305481 9.47977887 5.86411266 9.48671011 3.18505859 9.49023438 C-0.82340645 9.49673244 -4.83149854 9.53094211 -8.83984375 9.5625 C-52.33656724 9.7408477 -52.33656724 9.7408477 -62.125 4.25 C-58.62628459 3.76115477 -55.12583812 3.28588377 -51.625 2.8125 C-50.66207031 2.67779297 -49.69914062 2.54308594 -48.70703125 2.40429688 C-32.50778009 0.23380897 -16.31787283 0.01519951 0 0 Z " fill="#D2DAFE" transform="translate(307.125,156.75)"/>
<path d="M0 0 C0.8494519 -0.00090637 1.69890381 -0.00181274 2.57409668 -0.00274658 C16.56871691 -0.00105617 30.50699379 0.2123124 44.3125 2.75 C45.10333984 2.88857422 45.89417969 3.02714844 46.70898438 3.16992188 C48.59890441 3.50208964 50.48716721 3.84366791 52.375 4.1875 C44.31877893 12.24372107 20.01618227 9.55820431 9.37322998 9.60089111 C6.85069801 9.5987276 4.32816522 9.59126797 1.80566406 9.57861328 C-1.98929941 9.56254531 -5.78319367 9.57855425 -9.578125 9.59765625 C-21.77330273 9.60812015 -33.79437267 9.20959443 -45.9140625 7.7890625 C-46.98385345 7.66445648 -48.05364441 7.53985046 -49.15585327 7.41146851 C-54.66159103 6.69041586 -54.66159103 6.69041586 -56.625 6.1875 C-56.955 5.5275 -57.285 4.8675 -57.625 4.1875 C-38.45761901 0.79301597 -19.42476483 -0.00134403 0 0 Z " fill="#D2DBFE" transform="translate(302.625,99.8125)"/>
<path d="M0 0 C13.6479614 -0.77252612 26.44956947 4.79859778 36.75 13.5625 C48.18403779 24.61705313 53.99673006 38.23965131 54.4375 54.125 C53.89012478 70.27256888 48.21610161 82.48568594 37 94 C28.00068506 101.54744082 18.05239254 107.40825483 6 107 C8.48523136 105.72552238 10.99085943 104.55378516 13.5390625 103.40625 C30.46875573 95.62953489 38.21927377 84.96064276 45.1953125 68.11328125 C48.77028839 54.28194247 46.1057332 38.94742533 39.1875 26.6875 C30.85439861 13.87691129 18.98239296 5.15329092 3.9375 1.75 C2.62691966 1.49012424 1.31504059 1.23627207 0 1 C0 0.67 0 0.34 0 0 Z " fill="#F8980F" transform="translate(441,29)"/>
<path d="M0 0 C0.99 0.99 0.99 0.99 2 2 C-1.49989625 2.47992643 -4.99993559 2.95880162 -8.5 3.4375 C-9.48226562 3.57220703 -10.46453125 3.70691406 -11.4765625 3.84570312 C-12.44335938 3.97783203 -13.41015625 4.10996094 -14.40625 4.24609375 C-15.28603516 4.36654053 -16.16582031 4.4869873 -17.07226562 4.61108398 C-18.03841797 4.73942627 -19.00457031 4.86776855 -20 5 C-21.90217285 5.26453979 -21.90217285 5.26453979 -23.84277344 5.53442383 C-27.92880515 6.03955023 -31.99505183 6.1774175 -36.109375 6.203125 C-37.2450441 6.21344254 -37.2450441 6.21344254 -38.40365601 6.22396851 C-40.85248658 6.24110848 -43.30111252 6.24743059 -45.75 6.25 C-47.00390533 6.25250763 -47.00390533 6.25250763 -48.28314209 6.25506592 C-88.68736409 6.25988961 -88.68736409 6.25988961 -98 1 C-70.92525596 -9.37865188 -27.80001807 -7.22610465 0 0 Z " fill="#D3DCFE" transform="translate(343,189)"/>
<path d="M0 0 C1.05316406 -0.03738281 2.10632813 -0.07476562 3.19140625 -0.11328125 C4.67060547 -0.16935547 4.67060547 -0.16935547 6.1796875 -0.2265625 C8.87890625 0.19921875 8.87890625 0.19921875 11.20703125 1.58984375 C13.80784897 5.64906393 13.42030978 9.54583927 13.31640625 14.26171875 C13.32349609 15.17244141 13.33058594 16.08316406 13.33789062 17.02148438 C13.27455338 23.63291882 13.27455338 23.63291882 11.65063477 25.95727539 C9.3466662 27.57230751 7.89842248 27.58644037 5.09765625 27.59765625 C4.17339844 27.60152344 3.24914062 27.60539062 2.296875 27.609375 C1.33394531 27.59777344 0.37101562 27.58617187 -0.62109375 27.57421875 C-2.06548828 27.59162109 -2.06548828 27.59162109 -3.5390625 27.609375 C-4.46332031 27.60550781 -5.38757813 27.60164063 -6.33984375 27.59765625 C-7.18482422 27.59427246 -8.02980469 27.59088867 -8.90039062 27.58740234 C-11.12109375 27.19921875 -11.12109375 27.19921875 -12.8972168 25.9753418 C-14.49640727 23.65455371 -14.49419918 22.18854415 -14.484375 19.3828125 C-14.48373047 18.45404297 -14.48308594 17.52527344 -14.48242188 16.56835938 C-14.46630859 15.60091797 -14.45019531 14.63347656 -14.43359375 13.63671875 C-14.43681641 12.66541016 -14.44003906 11.69410156 -14.44335938 10.69335938 C-14.38811384 3.46623884 -14.38811384 3.46623884 -12.12109375 1.19921875 C-8.06578178 0.54513617 -4.09516157 0.26139329 0 0 Z " fill="#456BC5" transform="translate(42.12109375,442.80078125)"/>
<path d="M0 0 C1.21020813 -0.0033284 2.42041626 -0.0066568 3.66729736 -0.01008606 C6.22920351 -0.01514037 8.79111622 -0.01749485 11.35302734 -0.01733398 C15.21072763 -0.01950042 19.06813225 -0.03761674 22.92578125 -0.05664062 C33.84056351 -0.08282129 44.72170255 -0.0668259 55.59375 0.9921875 C56.73417755 1.09621635 56.73417755 1.09621635 57.89764404 1.2023468 C61.90668829 1.66398072 64.55456693 2.36111244 67.515625 5.16796875 C64.89144403 5.65201141 62.26640903 6.13026373 59.640625 6.60546875 C58.55007813 6.8075293 58.55007813 6.8075293 57.4375 7.01367188 C45.74879594 9.11558796 34.17635856 9.40568709 22.328125 9.41796875 C21.47834076 9.4196405 20.62855652 9.42131226 19.75302124 9.42303467 C7.71894785 9.42444402 -4.19498844 8.97724265 -16.171875 7.79296875 C-17.46440186 7.66696289 -18.75692871 7.54095703 -20.08862305 7.41113281 C-29.68282384 6.36603277 -29.68282384 6.36603277 -33.484375 4.16796875 C-31.2975534 3.68571544 -29.10988245 3.20731292 -26.921875 2.73046875 C-25.70371094 2.46363281 -24.48554688 2.19679687 -23.23046875 1.921875 C-15.3832107 0.34260409 -8.00099603 0.00773513 0 0 Z " fill="#D2DBFD" transform="translate(346.484375,128.83203125)"/>
<path d="M0 0 C1.07121094 0.00322266 2.14242187 0.00644531 3.24609375 0.00976562 C4.85291016 -0.0144043 4.85291016 -0.0144043 6.4921875 -0.0390625 C7.51441406 -0.03970703 8.53664063 -0.04035156 9.58984375 -0.04101562 C11.00040039 -0.04548706 11.00040039 -0.04548706 12.43945312 -0.05004883 C13.58124023 0.13424683 13.58124023 0.13424683 14.74609375 0.32226562 C17.59409192 4.59426287 17.07627691 8.30024848 17.05859375 13.32226562 C17.07470703 14.2375 17.09082031 15.15273438 17.10742188 16.09570312 C17.10806641 16.97484375 17.10871094 17.85398437 17.109375 18.75976562 C17.11235596 19.56285156 17.11533691 20.3659375 17.1184082 21.19335938 C16.74609375 23.32226562 16.74609375 23.32226562 15.5222168 25.08251953 C13.2152347 26.69280889 11.76560202 26.70948727 8.96484375 26.72070312 C8.04058594 26.72457031 7.11632812 26.7284375 6.1640625 26.73242188 C5.20113281 26.72082031 4.23820312 26.70921875 3.24609375 26.69726562 C1.80169922 26.71466797 1.80169922 26.71466797 0.328125 26.73242188 C-0.59613281 26.72855469 -1.52039063 26.7246875 -2.47265625 26.72070312 C-3.31763672 26.71731934 -4.16261719 26.71393555 -5.03320312 26.71044922 C-7.25390625 26.32226562 -7.25390625 26.32226562 -9.0300293 25.09838867 C-10.62921977 22.77760059 -10.62701168 21.31159102 -10.6171875 18.50585938 C-10.61654297 17.57708984 -10.61589844 16.64832031 -10.61523438 15.69140625 C-10.59912109 14.72396484 -10.58300781 13.75652344 -10.56640625 12.75976562 C-10.56962891 11.78845703 -10.57285156 10.81714844 -10.57617188 9.81640625 C-10.50790253 0.88553513 -8.79934348 0.06102949 0 0 Z " fill="#446BC5" transform="translate(74.25390625,401.677734375)"/>
<path d="M0 0 C2.30664062 -0.37231445 2.30664062 -0.37231445 5.15625 -0.36328125 C6.17847656 -0.36263672 7.20070313 -0.36199219 8.25390625 -0.36132812 C9.32511719 -0.34521484 10.39632812 -0.32910156 11.5 -0.3125 C13.10681641 -0.31733398 13.10681641 -0.31733398 14.74609375 -0.32226562 C22.73312996 -0.26687004 22.73312996 -0.26687004 25 2 C25.45091675 5.45943333 25.32406422 8.95204434 25.3125 12.4375 C25.32861328 13.40494141 25.34472656 14.37238281 25.36132812 15.36914062 C25.36229492 16.76229492 25.36229492 16.76229492 25.36328125 18.18359375 C25.36626221 19.03493896 25.36924316 19.88628418 25.37231445 20.76342773 C25 23 25 23 23.77612305 24.77612305 C21.46896971 26.36591819 20.00877407 26.38726463 17.21875 26.3984375 C16.29449219 26.40230469 15.37023437 26.40617187 14.41796875 26.41015625 C13.45503906 26.39855469 12.49210937 26.38695312 11.5 26.375 C10.05560547 26.39240234 10.05560547 26.39240234 8.58203125 26.41015625 C7.65777344 26.40628906 6.73351562 26.40242188 5.78125 26.3984375 C4.93626953 26.39505371 4.09128906 26.39166992 3.22070312 26.38818359 C1 26 1 26 -0.77612305 24.76025391 C-2.33936747 22.51190117 -2.37339628 21.16254426 -2.36328125 18.4375 C-2.36263672 17.55835938 -2.36199219 16.67921875 -2.36132812 15.7734375 C-2.34521484 14.85820312 -2.32910156 13.94296875 -2.3125 13 C-2.31572266 12.08476562 -2.31894531 11.16953125 -2.32226562 10.2265625 C-2.26721939 3.40082908 -2.26721939 3.40082908 0 0 Z " fill="#446AC5" transform="translate(102,402)"/>
<path d="M0 0 C1.01900391 0.00322266 2.03800781 0.00644531 3.08789062 0.00976562 C4.10302734 -0.00634766 5.11816406 -0.02246094 6.1640625 -0.0390625 C7.62489258 -0.0400293 7.62489258 -0.0400293 9.11523438 -0.04101562 C10.45509399 -0.04548706 10.45509399 -0.04548706 11.82202148 -0.05004883 C14.15039062 0.32226562 14.15039062 0.32226562 15.94018555 1.55981445 C17.48106846 3.80383983 17.53740839 5.17448219 17.54882812 7.88476562 C17.55462891 9.20347656 17.55462891 9.20347656 17.56054688 10.54882812 C17.54894531 11.4640625 17.53734375 12.37929688 17.52539062 13.32226562 C17.53699219 14.2375 17.54859375 15.15273438 17.56054688 16.09570312 C17.55667969 16.97484375 17.5528125 17.85398437 17.54882812 18.75976562 C17.54544434 19.56285156 17.54206055 20.3659375 17.53857422 21.19335938 C17.04575168 23.89613457 16.40302223 24.76192416 14.15039062 26.32226562 C11.82202148 26.71044922 11.82202148 26.71044922 9.11523438 26.72070312 C8.14134766 26.72457031 7.16746094 26.7284375 6.1640625 26.73242188 C5.14892578 26.72082031 4.13378906 26.70921875 3.08789062 26.69726562 C2.06888672 26.70886719 1.04988281 26.72046875 0 26.73242188 C-1.45889648 26.72662109 -1.45889648 26.72662109 -2.94726562 26.72070312 C-3.83937744 26.71731934 -4.73148926 26.71393555 -5.65063477 26.71044922 C-6.37629639 26.58234863 -7.10195801 26.45424805 -7.84960938 26.32226562 C-9.99354971 23.10635512 -10.10541411 22.21195628 -10.11523438 18.50585938 C-10.1178125 17.57708984 -10.12039062 16.64832031 -10.12304688 15.69140625 C-10.11144531 14.24024414 -10.11144531 14.24024414 -10.09960938 12.75976562 C-10.10734375 11.78845703 -10.11507813 10.81714844 -10.12304688 9.81640625 C-10.12046875 8.88892578 -10.11789063 7.96144531 -10.11523438 7.00585938 C-10.11297852 6.15564209 -10.11072266 5.3054248 -10.10839844 4.42944336 C-9.42420828 -1.14154276 -4.3639637 0.03181153 0 0 Z " fill="#446AC4" transform="translate(37.849609375,401.677734375)"/>
<path d="M0 0 C0.99 0 1.98 0 3 0 C4.00109515 3.31070838 4.10356134 6.30084769 4.0625 9.75 C4.05347656 10.73484375 4.04445312 11.7196875 4.03515625 12.734375 C4.02355469 13.48203125 4.01195312 14.2296875 4 15 C5.05501709 14.99476318 6.11003418 14.98952637 7.19702148 14.98413086 C11.0975663 14.96608099 14.9981074 14.95456805 18.89868164 14.94506836 C20.58944316 14.9400281 22.28020029 14.93319595 23.97094727 14.92456055 C26.39600707 14.91248143 28.82100944 14.90676877 31.24609375 14.90234375 C32.38672523 14.89460182 32.38672523 14.89460182 33.55039978 14.88670349 C35.3673257 14.88650762 37.18413127 14.93802723 39 15 C40 16 40 16 40.09765625 18.72265625 C40.08605469 19.82480469 40.07445313 20.92695313 40.0625 22.0625 C40.05347656 23.16722656 40.04445313 24.27195312 40.03515625 25.41015625 C40.02355469 26.26480469 40.01195313 27.11945313 40 28 C42.31 28 44.62 28 47 28 C47 28.33 47 28.66 47 29 C40.73 29 34.46 29 28 29 C28 28.67 28 28.34 28 28 C30.64 28 33.28 28 36 28 C36 25.69 36 23.38 36 21 C25.11 21 14.22 21 3 21 C3.495 24.465 3.495 24.465 4 28 C6.31 28 8.62 28 11 28 C11 28.33 11 28.66 11 29 C4.73 29 -1.54 29 -8 29 C-8 28.67 -8 28.34 -8 28 C-5.69 28 -3.38 28 -1 28 C-0.67 25.69 -0.34 23.38 0 21 C-10.89 21 -21.78 21 -33 21 C-33 23.31 -33 25.62 -33 28 C-30.36 28 -27.72 28 -25 28 C-25 28.33 -25 28.66 -25 29 C-31.27 29 -37.54 29 -44 29 C-44 28.67 -44 28.34 -44 28 C-41.69 28 -39.38 28 -37 28 C-37.01160156 27.14535156 -37.02320313 26.29070312 -37.03515625 25.41015625 C-37.04417969 24.30542969 -37.05320312 23.20070313 -37.0625 22.0625 C-37.07410156 20.96035156 -37.08570313 19.85820312 -37.09765625 18.72265625 C-37 16 -37 16 -36 15 C-33.40640678 14.91148471 -30.83960309 14.88474055 -28.24609375 14.90234375 C-27.47064713 14.9037587 -26.6952005 14.90517365 -25.89625549 14.90663147 C-23.40996506 14.91224655 -20.9237634 14.92480154 -18.4375 14.9375 C-16.75586067 14.94251306 -15.07421994 14.9470763 -13.39257812 14.95117188 C-9.26168434 14.96222087 -5.13085724 14.97949555 -1 15 C-0.67 10.05 -0.34 5.1 0 0 Z " fill="#8E9FEA" transform="translate(76,373)"/>
<path d="M0 0 C2.990625 -0.061875 5.98125 -0.12375 9.0625 -0.1875 C9.99070557 -0.21481201 10.91891113 -0.24212402 11.87524414 -0.27026367 C18.11391033 -0.33225704 23.13158382 0.40917248 27.9375 4.75 C29.50004225 8.05891299 29.43689955 10.37997512 29 14 C27.25564124 17.55580825 26.10341954 19.49426604 22.46875 21.16015625 C17.95520795 22.25296204 13.74566148 22.21476014 9.125 22.125 C6.11375 22.08375 3.1025 22.0425 0 22 C0 14.74 0 7.48 0 0 Z " fill="#F7F8FC" transform="translate(192,107)"/>
<path d="M0 0 C1.64157578 -0.00922989 1.64157578 -0.00922989 3.3163147 -0.01864624 C5.08052261 0.00291031 5.08052261 0.00291031 6.88037109 0.02490234 C8.09075043 0.02581879 9.30112976 0.02673523 10.54818726 0.02767944 C13.10524419 0.03371972 15.6622939 0.04947827 18.21923828 0.07421875 C22.14560835 0.11076352 26.07103612 0.11523789 29.99755859 0.11474609 C32.47933763 0.12457544 34.96111025 0.13623164 37.44287109 0.14990234 C38.62305817 0.15212799 39.80324524 0.15435364 41.01919556 0.15664673 C42.65131485 0.17578629 42.65131485 0.17578629 44.31640625 0.1953125 C45.2769693 0.2029361 46.23753235 0.21055969 47.22720337 0.21841431 C49.52880859 0.48583984 49.52880859 0.48583984 51.52880859 2.48583984 C51.52880859 5.12583984 51.52880859 7.76583984 51.52880859 10.48583984 C31.39880859 10.48583984 11.26880859 10.48583984 -9.47119141 10.48583984 C-9.47119141 4.48583984 -9.47119141 4.48583984 -7.81314087 2.14120483 C-4.96414585 0.12744378 -3.46610464 -0.01026709 0 0 Z " fill="#FDFDFD" transform="translate(388.47119140625,345.51416015625)"/>
<path d="M0 0 C6.22769406 -1.19253716 12.64809431 -2.18091814 18.21533203 1.44140625 C23.33570587 5.79563072 27.68305857 10.86796764 32 16 C35.69166708 20.28090185 39.37431004 24.50103722 43.4375 28.4375 C44.64316121 29.60655669 45.83691398 30.78857794 47 32 C47 32.33 47 32.66 47 33 C42.60451509 33.14536813 38.20964913 33.23409948 33.8125 33.3125 C32.56662109 33.35439453 31.32074219 33.39628906 30.03710938 33.43945312 C21.1282933 33.55887425 21.1282933 33.55887425 16.65625 31.34375 C13.91865762 25.81691255 14.48359721 20.25125531 14.6875 14.1875 C14.71005859 12.92228516 14.73261719 11.65707031 14.75585938 10.35351562 C14.81469608 7.23517021 14.90437319 4.11743411 15 1 C10.05 1 5.1 1 0 1 C0 0.67 0 0.34 0 0 Z " fill="#8B9CE9" transform="translate(95,327)"/>
<path d="M0 0 C0.99 0 1.98 0 3 0 C3 1.03125 3 2.0625 3 3.125 C3.35451691 5.81932855 3.7829341 6.79295252 5.77734375 8.6953125 C7.19023221 9.7121834 8.62770479 10.69593993 10.08984375 11.640625 C12 13 12 13 14 16 C13.625 18.1875 13.625 18.1875 13 20 C12.4225 19.05125 11.845 18.1025 11.25 17.125 C8.75492231 13.58377027 8.75492231 13.58377027 5 12 C0.34751094 11.50505436 -2.25647865 12.19235899 -6 15 C-8.48386059 18.72579089 -8.3804212 20.58711402 -8 25 C-7.37245277 27.90891595 -7.37245277 27.90891595 -5 30 C-2.29413777 30.93715228 0.4224831 31.603741 3.20703125 32.26953125 C8.38811053 33.62458275 12.42820674 35.65246863 15.4375 40.25 C17.47114483 44.36130794 17.57725909 47.45408469 17 52 C15.1875 55.3125 15.1875 55.3125 13 58 C12.54625 58.598125 12.0925 59.19625 11.625 59.8125 C9.24662926 61.55054016 6.87947295 61.68005856 4 62 C4.061875 63.11375 4.12375 64.2275 4.1875 65.375 C4.0946875 67.169375 4.0946875 67.169375 4 69 C2.515 69.99 2.515 69.99 1 71 C-1 69 -1 69 -1.125 65.375 C-1.063125 63.704375 -1.063125 63.704375 -1 62 C-1.8353125 61.9071875 -1.8353125 61.9071875 -2.6875 61.8125 C-6.027159 60.6391063 -7.71500747 58.65553186 -10 56 C-10.64453125 53.83203125 -10.64453125 53.83203125 -11 52 C-10.5875 52.433125 -10.175 52.86625 -9.75 53.3125 C-6.63999322 56.31143511 -4.32657463 58.43555396 0.125 58.5625 C3.98974603 58.00148848 6.00882726 57.46331873 9 55 C11.32402951 51.79062591 11.47570691 48.88493979 11 45 C8.92387236 41.67819578 7.70445646 40.23122006 3.94140625 38.99609375 C2.82636719 38.81175781 1.71132813 38.62742188 0.5625 38.4375 C-4.43092526 37.59851198 -7.31335447 36.5363036 -11 33 C-13.92499733 27.7551772 -14.65068786 23.85619073 -14 18 C-11.59064944 13.18129888 -8.69429982 10.59684671 -4 8 C-3.01 8 -2.02 8 -1 8 C-1.020625 6.865625 -1.04125 5.73125 -1.0625 4.5625 C-1 1 -1 1 0 0 Z " fill="#FEF8EF" transform="translate(433,48)"/>
<path d="M0 0 C3.155625 -0.061875 6.31125 -0.12375 9.5625 -0.1875 C10.5429126 -0.21481201 11.5233252 -0.24212402 12.53344727 -0.27026367 C18.14085004 -0.32313688 22.08324351 0.22826737 27 3 C29.46751239 6.70126859 29.30721156 8.62223532 29 13 C28.14727168 16.06982195 27.2641781 16.82459603 24.59375 18.59765625 C19.68722761 20.51226662 15.33628212 20.32519648 10.125 20.1875 C9.15046875 20.17396484 8.1759375 20.16042969 7.171875 20.14648438 C4.78100991 20.11132459 2.39043157 20.05752375 0 20 C0 13.4 0 6.8 0 0 Z " fill="#FBFCFD" transform="translate(136,107)"/>
<path d="M0 0 C8.25 0.33 16.5 0.66 25 1 C25 10.2 25 10.2 21 15 C16.7581081 17.82792793 12.98126257 17.78122286 8 17 C4.87708835 15.31987353 2.60835163 13.21670326 1 10 C0.67 6.7 0.34 3.4 0 0 Z " fill="#899AE9" transform="translate(397,428)"/>
<path d="M0 0 C1.01578125 -0.00708984 2.0315625 -0.01417969 3.078125 -0.02148438 C9.84374877 0.03489582 15.64333148 1.13021918 22 3.4375 C22 4.0975 22 4.7575 22 5.4375 C9.44259051 11.10064546 -4.59468088 10.92396276 -17.8125 7.2890625 C-20 6.4375 -20 6.4375 -22 4.4375 C-14.53874175 0.80488242 -8.24753143 -0.16222936 0 0 Z " fill="#D2DBFE" transform="translate(266,128.5625)"/>
<path d="M0 0 C1.63671875 1.046875 1.63671875 1.046875 3.94921875 3.171875 C3.94921875 3.831875 3.94921875 4.491875 3.94921875 5.171875 C-1.60061141 8.87176177 -7.52040855 9.068373 -14.05078125 8.171875 C-16.921875 6.6484375 -16.921875 6.6484375 -19.05078125 5.171875 C-18.10786729 2.81459011 -17.47987235 1.4451079 -15.30859375 0.0625 C-10.62962493 -1.7831832 -4.68365084 -1.89130281 0 0 Z " fill="#D2DBFE" transform="translate(413.05078125,157.828125)"/>
<path d="M0 0 C3.96 0 7.92 0 12 0 C12 4.95 12 9.9 12 15 C8.52669872 15.69466026 6.08697137 16.12011816 2.6875 16.0625 C0.8621875 16.0315625 0.8621875 16.0315625 -1 16 C-1 15.67 -1 15.34 -1 15 C1.31 15 3.62 15 6 15 C6 10.38 6 5.76 6 1 C4.02 1 2.04 1 0 1 C0 0.67 0 0.34 0 0 Z " fill="#90A1EA" transform="translate(32,428)"/>
<path d="M0 0 C2 2 2 2 2.3125 5.5 C2.1578125 7.2325 2.1578125 7.2325 2 9 C-1.23253796 11.15502531 -2.25150923 11.46856135 -6 11 C-7.8125 9.8125 -7.8125 9.8125 -9 8 C-9.42822025 5.14519831 -9.40659584 3.65507108 -7.875 1.1875 C-5.16554166 -0.52849028 -3.13704316 -0.333728 0 0 Z " fill="#FEFAF5" transform="translate(467,78)"/>
<path d="M0 0 C3 0.25 3 0.25 5 2.25 C5.3125 5.75 5.3125 5.75 5 9.25 C1.77856724 11.39762184 0.7404533 11.811068 -3 11.25 C-4.875 9.5625 -4.875 9.5625 -6 7.25 C-5.67747519 2.7346526 -4.81889451 0.40157454 0 0 Z " fill="#FEFBF6" transform="translate(405,77.75)"/>
<path d="M0 0 C1.65 0 3.3 0 5 0 C5 4.95 5 9.9 5 15 C3.35 15 1.7 15 0 15 C0 10.05 0 5.1 0 0 Z " fill="#899AE9" transform="translate(111,428)"/>
<path d="M0 0 C0.66 1.98 1.32 3.96 2 6 C-1.68754757 5.50168276 -3.60490662 4.89932357 -6 2 C-2.25 0 -2.25 0 0 0 Z " fill="#D6DDFA" transform="translate(384,102)"/>
<path d="M0 0 C2.31 1.98 4.62 3.96 7 6 C6.67 6.99 6.34 7.98 6 9 C1.125 4.5 1.125 4.5 0 0 Z " fill="#FEF3E2" transform="translate(422,100)"/>
</svg>
